<svg xmlns="http://www.w3.org/2000/svg" xmlns:xlink="http://www.w3.org/1999/xlink" width="1675" zoomAndPan="magnify" viewBox="0 0 1256.25 328.49999" height="438" preserveAspectRatio="xMidYMid meet" version="1.0"><defs><g></g><clipPath id="cb56ba27ea"><path d="M 0.582031 0 L 1254.921875 0 L 1254.921875 328 L 0.582031 328 Z M 0.582031 0 " clip-rule="nonzero"></path></clipPath><clipPath id="ea4ede0f0f"><path d="M 0.582031 0 L 1254.921875 0 L 1254.921875 320.761719 L 0.582031 320.761719 Z M 0.582031 0 " clip-rule="nonzero"></path></clipPath><clipPath id="624221f482"><path d="M 0.582031 0 L 1254.921875 0 L 1254.921875 320.761719 L 0.582031 320.761719 Z M 0.582031 0 " clip-rule="nonzero"></path></clipPath><clipPath id="d161abfb41"><rect x="0" width="1255" y="0" height="321"></rect></clipPath><clipPath id="3284611c7b"><path d="M 329.632812 36.046875 L 577.585938 36.046875 L 577.585938 284 L 329.632812 284 Z M 329.632812 36.046875 " clip-rule="nonzero"></path></clipPath><clipPath id="257bb73e7c"><rect x="0" width="632" y="0" height="328"></rect></clipPath><clipPath id="a246212ba6"><rect x="0" width="290" y="0" height="328"></rect></clipPath><clipPath id="12bec84590"><path d="M 329.277344 35.304688 L 577.226562 35.304688 L 577.226562 286.507812 L 329.277344 286.507812 Z M 329.277344 35.304688 " clip-rule="nonzero"></path></clipPath><clipPath id="15454a0f67"><path d="M 453.390625 35.304688 C 384.84375 35.304688 329.277344 91.609375 329.277344 161.058594 C 329.277344 230.511719 384.84375 286.816406 453.390625 286.816406 C 521.9375 286.816406 577.503906 230.511719 577.503906 161.058594 C 577.503906 91.609375 521.9375 35.304688 453.390625 35.304688 Z M 453.390625 35.304688 " clip-rule="nonzero"></path></clipPath><clipPath id="f6fb5a68dd"><rect x="0" width="1255" y="0" height="328"></rect></clipPath></defs><g clip-path="url(#cb56ba27ea)"><g transform="matrix(1, 0, 0, 1, 0.000000000000000111, 0)"><g clip-path="url(#f6fb5a68dd)"><g clip-path="url(#ea4ede0f0f)"><g transform="matrix(1, 0, 0, 1, 0.000000000000000111, 0)"><g clip-path="url(#d161abfb41)"><g clip-path="url(#624221f482)"><path fill="#ffffff" d="M 0.582031 -8.808594 L 1254.488281 -8.808594 L 1254.488281 320.761719 L 0.582031 320.761719 Z M 0.582031 -8.808594 " fill-opacity="1" fill-rule="nonzero"></path></g></g></g></g><g clip-path="url(#3284611c7b)"><path fill="#000000" d="M 559.070312 94.78125 C 559.082031 94.757812 559.089844 94.738281 559.097656 94.726562 C 559.242188 94.332031 559.042969 93.890625 558.648438 93.738281 C 558.570312 93.710938 558.492188 93.753906 558.40625 93.746094 C 536.378906 59.144531 497.710938 36.125 453.738281 36.125 C 425.539062 36.125 399.519531 45.601562 378.660156 61.515625 C 378.417969 61.5625 378.246094 61.710938 378.140625 61.925781 C 348.714844 84.628906 329.707031 120.203125 329.707031 160.160156 C 329.707031 228.546875 385.347656 284.183594 453.738281 284.183594 C 522.125 284.183594 577.761719 228.542969 577.761719 160.160156 C 577.761719 136.171875 570.902344 113.777344 559.070312 94.78125 Z M 556.363281 221.191406 C 549.296875 225.449219 540.746094 229.164062 531.054688 232.257812 C 533.746094 220.34375 535.375 209.066406 536.121094 198.390625 C 546.398438 194.984375 555.328125 190.898438 562.511719 186.273438 C 562.78125 194.714844 562.570312 202.839844 562.050781 210.449219 C 560.332031 214.132812 558.4375 217.722656 556.363281 221.191406 Z M 403.480469 267.621094 C 400.679688 264.777344 398.074219 261.867188 395.640625 258.894531 C 403.34375 260.996094 412.398438 263.019531 422.425781 264.566406 C 425.289062 269.214844 428.617188 273.613281 432.484375 277.671875 C 422.335938 275.847656 412.636719 272.738281 403.546875 268.519531 C 403.714844 268.222656 403.722656 267.867188 403.480469 267.621094 Z M 401.160156 267.378906 C 393.644531 263.679688 386.585938 259.203125 380.058594 254.070312 C 383.703125 255.347656 388.121094 256.769531 393.164062 258.199219 C 395.625 261.328125 398.289062 264.386719 401.160156 267.378906 Z M 394.054688 256.867188 C 388.328125 249.550781 383.707031 241.882812 380.191406 233.867188 C 389.890625 236.914062 400.722656 239.335938 412.269531 241.089844 C 414.4375 248.769531 417.433594 256.078125 421.390625 262.859375 C 411.050781 261.214844 401.8125 259.050781 394.054688 256.867188 Z M 342.953125 182.257812 C 342.957031 192.261719 344.230469 202.808594 347.097656 213.875 C 340.972656 201.753906 336.847656 188.46875 335.171875 174.441406 C 337.246094 177.164062 339.859375 179.765625 342.953125 182.257812 Z M 349.789062 217.949219 C 346.222656 205.824219 344.605469 194.328125 344.503906 183.457031 C 351.25 188.527344 360.039062 193.039062 370.410156 196.828125 C 370.753906 208.90625 373.117188 220.433594 377.46875 231.363281 C 366.449219 227.65625 357.007812 223.140625 349.789062 217.949219 Z M 351.074219 143.800781 C 357.925781 148.277344 366.53125 152.269531 376.441406 155.628906 C 372.972656 166.957031 370.757812 178.589844 370.398438 190.3125 C 370.351562 191.890625 370.351562 193.460938 370.367188 195.015625 C 359.902344 191.140625 351.089844 186.558594 344.480469 181.433594 C 344.574219 167.871094 347.035156 155.304688 351.074219 143.800781 Z M 345.421875 109.875 C 347.992188 105.765625 350.789062 101.890625 353.757812 98.21875 C 356.398438 102.671875 360.777344 106.828125 366.574219 110.578125 C 360.164062 119.808594 354.484375 130.128906 350.296875 141.488281 C 345.019531 137.808594 340.933594 133.8125 338.269531 129.574219 C 340.078125 122.746094 342.488281 116.160156 345.421875 109.875 Z M 351.214844 98.933594 C 351.722656 98.085938 352.257812 97.257812 352.78125 96.417969 C 352.84375 96.542969 352.898438 96.667969 352.953125 96.789062 C 352.375 97.5 351.78125 98.203125 351.214844 98.933594 Z M 391.476562 58.253906 C 391.679688 58.214844 391.941406 58.199219 392.390625 58.175781 C 393.441406 58.125 392.535156 58.601562 392.390625 58.984375 C 392.25 59.367188 391.25 60.605469 390.625 61.175781 C 390.007812 61.75 389.578125 62.128906 389.148438 63.507812 C 388.722656 64.890625 389.148438 64.558594 389.578125 63.746094 C 390.007812 62.9375 390.910156 62.273438 392.488281 61.082031 C 394.054688 59.890625 393.535156 60.507812 394.347656 60.128906 C 395.15625 59.746094 395.773438 59.367188 396.824219 58.792969 C 397.871094 58.222656 397.347656 58.414062 398.109375 57.550781 C 398.871094 56.699219 399.351562 56.792969 400.25 56.074219 C 401.160156 55.363281 401.632812 55.265625 402.011719 54.886719 C 402.398438 54.507812 402.589844 54.359375 403.019531 53.742188 C 403.445312 53.121094 404.019531 53.03125 404.542969 52.265625 C 405.066406 51.503906 405.351562 51.503906 405.785156 50.929688 C 405.839844 50.859375 405.847656 50.804688 405.882812 50.742188 C 408.191406 49.726562 410.535156 48.757812 412.921875 47.886719 C 413.53125 49.042969 414.410156 50.148438 415.523438 51.203125 C 411.179688 53.136719 406.640625 55.328125 402.003906 57.792969 C 401.867188 57.820312 401.71875 57.855469 401.542969 57.886719 C 401.125 57.960938 401.316406 57.933594 400.988281 58.328125 C 399.269531 59.257812 397.53125 60.230469 395.792969 61.242188 C 395.421875 61.347656 395.046875 61.707031 394.488281 61.894531 C 393.914062 62.082031 393.820312 62.273438 393.25 62.652344 C 393.207031 62.679688 393.226562 62.742188 393.195312 62.777344 C 389.507812 64.988281 385.808594 67.363281 382.136719 69.941406 C 381.285156 68.699219 380.644531 67.417969 380.210938 66.117188 C 383.8125 63.292969 387.5625 60.65625 391.476562 58.253906 Z M 393.332031 64.453125 C 393.394531 64.75 393.433594 65.03125 393.34375 65.226562 C 393.054688 65.894531 393.34375 65.226562 392.675781 65.320312 C 392.113281 65.402344 391.921875 65.554688 391.203125 65.769531 C 391.917969 65.324219 392.625 64.886719 393.332031 64.453125 Z M 508.375 56.308594 C 509.105469 57.042969 509.789062 57.691406 510.289062 57.886719 C 511.238281 58.269531 511.996094 58.839844 512.859375 59.507812 C 513.714844 60.179688 518.671875 66.179688 518.671875 66.179688 C 518.671875 66.179688 518.960938 70.183594 522.101562 71.039062 C 524.261719 71.632812 525.664062 72.21875 526.570312 72.742188 C 525.089844 74.265625 523.308594 75.730469 521.242188 77.121094 C 519.257812 75.097656 517.277344 73.179688 515.320312 71.402344 C 507.378906 64.179688 499.289062 58.507812 491.785156 54.019531 C 493.128906 53.210938 494.324219 52.351562 495.332031 51.449219 C 499.769531 52.953125 504.191406 54.578125 508.375 56.308594 Z M 529.730469 73.421875 C 531.445312 72.945312 531.351562 73.519531 533.347656 74.757812 C 535.351562 76 535.066406 75.425781 535.921875 77.621094 C 536.78125 79.8125 536.96875 78.289062 536.96875 81.144531 C 536.96875 84.003906 538.96875 85.8125 538.683594 87.71875 C 538.402344 89.625 539.5 90.867188 538.714844 92.484375 C 537.921875 94.105469 536.683594 94.679688 537.453125 95.632812 C 538.210938 96.585938 537.828125 96.394531 539.644531 96.777344 C 541.449219 97.15625 544.976562 98.011719 545.933594 98.773438 C 546.886719 99.535156 547.175781 100.871094 546.691406 101.539062 C 546.214844 102.203125 545.832031 102.109375 543.453125 103.730469 C 542.945312 104.074219 542.515625 104.304688 542.105469 104.519531 C 539.8125 100.605469 537.425781 96.925781 534.964844 93.496094 C 535.503906 93.183594 535.96875 92.773438 536.144531 92.238281 C 536.335938 91.664062 535.765625 92.039062 536.144531 91.027344 C 536.527344 90.007812 536.210938 90.835938 536.527344 90.007812 C 536.847656 89.183594 536.90625 88.804688 536.90625 88.804688 C 536.90625 88.804688 537.414062 88.355469 537.539062 88.101562 C 537.671875 87.847656 537.726562 87.722656 537.539062 86.898438 C 537.351562 86.070312 537.539062 86.320312 536.96875 85.6875 C 536.394531 85.050781 536.074219 84.796875 535.570312 84.609375 C 535.066406 84.417969 534.804688 84.289062 534.488281 84.230469 C 534.171875 84.167969 534.171875 84.417969 533.601562 84.039062 C 533.027344 83.660156 532.875 83.464844 532.1875 83.273438 C 531.503906 83.085938 531.574219 83.148438 530.742188 82.765625 C 529.910156 82.386719 529.597656 82.191406 529.28125 82.066406 C 528.960938 81.941406 529.847656 82.703125 528.960938 81.941406 C 528.074219 81.175781 528.332031 81.492188 528.074219 81.175781 C 527.816406 80.859375 528.003906 81.367188 527.4375 80.414062 C 526.863281 79.460938 526.863281 79.460938 526.863281 79.460938 L 526.035156 79.015625 C 526.035156 79.015625 526.292969 78.644531 525.660156 78.761719 C 525.394531 78.8125 525.085938 79.015625 524.703125 78.761719 C 524.324219 78.511719 524.132812 77.867188 523.941406 78.128906 C 523.777344 78.351562 523.101562 78.550781 523.277344 79.25 C 522.933594 78.890625 522.59375 78.523438 522.253906 78.167969 C 524.378906 76.730469 526.214844 75.21875 527.753906 73.640625 C 528.1875 74.035156 528.238281 73.839844 529.730469 73.421875 Z M 550.507812 100.015625 C 550.125 99.15625 550.125 97.15625 551.839844 97.058594 C 553.050781 96.996094 554.660156 97.8125 555.527344 98.308594 C 554.394531 100.023438 553 101.695312 551.347656 103.3125 C 551.21875 101.148438 550.863281 100.820312 550.507812 100.015625 Z M 552.148438 129.488281 C 552.257812 130.574219 552.03125 131.824219 552.03125 132.609375 C 552.03125 133.46875 551.078125 134.515625 550.699219 136.328125 C 550.316406 138.136719 549.550781 137.1875 549.550781 140.808594 C 549.550781 142.609375 549.441406 145.359375 549.636719 148.042969 C 544.945312 150.328125 539.753906 152.441406 534.117188 154.347656 C 531.976562 141.6875 528.605469 130.28125 524.542969 120.101562 C 531.835938 117.550781 538.226562 114.59375 543.523438 111.296875 C 544.09375 112.0625 544.550781 112.808594 544.785156 113.742188 C 545.078125 114.882812 545.453125 115.554688 546.125 115.9375 C 546.273438 116.019531 546.40625 116.050781 546.550781 116.066406 C 548.652344 120.492188 550.519531 124.980469 552.148438 129.488281 Z M 493.839844 191.832031 C 493.640625 191.761719 493.472656 191.710938 493.230469 191.609375 C 491.613281 190.941406 491.230469 192.082031 491.230469 191.230469 C 491.230469 190.367188 491.230469 190.660156 490.753906 189.992188 C 490.269531 189.320312 489.414062 189.128906 488.175781 188.648438 C 486.9375 188.171875 487.414062 188.558594 486.9375 188.558594 C 486.460938 188.558594 485.890625 188.839844 484.839844 187.984375 C 483.789062 187.128906 484.839844 187.984375 484.742188 187.703125 C 484.648438 187.414062 485.222656 186.835938 485.222656 186.835938 C 485.222656 186.835938 485.222656 186.835938 484.648438 186.835938 C 484.074219 186.835938 483.890625 186.460938 483.503906 186.078125 C 483.128906 185.695312 482.457031 185.121094 481.605469 185.121094 C 480.742188 185.121094 481.121094 185.3125 480.363281 185.605469 C 479.597656 185.886719 476.835938 185.886719 476.835938 185.886719 C 476.835938 185.886719 475.886719 185.886719 475.121094 185.886719 C 474.355469 185.886719 474.542969 185.886719 473.878906 185.886719 C 473.210938 185.886719 471.972656 185.605469 471.972656 185.605469 C 471.972656 185.605469 471.402344 185.21875 470.355469 184.84375 C 469.308594 184.464844 469.878906 184.273438 468.921875 184.175781 C 467.96875 184.082031 468.066406 184.84375 467.589844 185.507812 C 467.113281 186.175781 467.589844 185.507812 466.921875 185.886719 C 466.253906 186.269531 466.445312 186.9375 466.542969 187.222656 C 466.632812 187.511719 466.542969 188.367188 466.542969 188.367188 C 466.542969 188.367188 465.585938 188.75 465.015625 188.460938 C 464.441406 188.175781 465.300781 185.988281 465.300781 185.21875 C 465.300781 184.464844 465.300781 185.21875 465.390625 184.554688 C 465.492188 183.886719 466.253906 183.605469 466.15625 183.3125 C 466.066406 183.027344 464.632812 184.078125 464.253906 184.171875 C 463.871094 184.269531 462.726562 185.035156 461.296875 186.074219 C 459.867188 187.128906 460.4375 186.550781 459.675781 186.742188 C 458.914062 186.9375 458.914062 186.9375 458.25 187.886719 C 457.578125 188.835938 457.867188 188.554688 457.578125 188.746094 C 457.296875 188.933594 456.246094 191.226562 456.246094 191.226562 L 455.003906 190.847656 C 455.003906 190.847656 455.003906 190.847656 454.242188 190.078125 C 453.480469 189.320312 454.242188 187.980469 453.738281 187.414062 C 453.625 187.289062 453.371094 187.289062 453.050781 187.351562 C 453.015625 182.472656 452.996094 177.570312 453.003906 172.652344 C 453.167969 172.714844 453.375 172.773438 453.738281 172.875 C 455.003906 173.214844 454.242188 173.113281 455.003906 173.214844 C 455.769531 173.308594 455.386719 173.972656 456.433594 173.214844 C 457.484375 172.449219 457.484375 172.925781 457.484375 172.449219 C 457.484375 171.972656 456.242188 171.113281 455.433594 171.5 C 454.441406 171.964844 453.289062 171.214844 453.007812 171.5 C 453.007812 170.097656 453.015625 168.695312 453.019531 167.292969 C 453.234375 167.300781 453.449219 167.300781 453.65625 167.300781 C 453.554688 167.441406 453.453125 167.5625 453.734375 167.78125 C 454.242188 168.164062 452.171875 167.875 453.777344 168.730469 C 455.386719 169.59375 455.289062 169.59375 456.433594 169.496094 C 457.578125 169.398438 457.574219 169.960938 458.628906 169.542969 C 459.671875 169.117188 460.628906 168.539062 460.628906 168.539062 C 460.628906 168.539062 461.863281 168.355469 460.152344 167.875 C 458.910156 167.527344 458.074219 167.527344 457.347656 167.308594 C 470.253906 167.230469 482.765625 166.351562 494.539062 164.773438 C 494.703125 173.273438 494.492188 182.304688 493.839844 191.832031 Z M 439.566406 176.074219 C 438.808594 175.882812 434.515625 175.882812 433.566406 175.882812 C 432.613281 175.882812 433.757812 173.589844 433.851562 173.117188 C 433.945312 172.644531 434.230469 171.785156 434.425781 171.214844 C 434.621094 170.644531 434.898438 170.167969 435.183594 169.5 C 435.472656 168.835938 435.371094 168.925781 435.667969 168.261719 C 435.949219 167.59375 436.140625 167.402344 436.234375 166.925781 C 436.253906 166.835938 436.269531 166.765625 436.289062 166.699219 C 441.277344 167.015625 446.355469 167.21875 451.503906 167.285156 C 451.472656 174.167969 451.488281 181.046875 451.542969 187.867188 C 450.582031 188.265625 449.566406 188.75 449.101562 188.84375 C 448.152344 189.035156 447.574219 188.9375 446.910156 188.84375 C 446.242188 188.75 444.910156 187.988281 444.527344 187.605469 C 444.148438 187.222656 443.578125 186.746094 443.578125 186.746094 C 443.578125 186.746094 443 185.886719 442.71875 185.503906 C 442.429688 185.121094 442.53125 184.9375 442.339844 184.652344 C 442.148438 184.363281 442.429688 182.363281 442.429688 181.699219 C 442.429688 181.027344 443.097656 180.457031 443.003906 180.074219 C 442.90625 179.691406 440.332031 176.261719 439.566406 176.074219 Z M 429.273438 170.066406 C 428.796875 170.449219 428.226562 170.542969 426.988281 170.542969 C 425.75 170.542969 424.984375 170.542969 424.222656 170.453125 C 423.464844 170.355469 423.175781 170.261719 422.695312 170.070312 C 422.222656 169.882812 420.597656 169.691406 419.550781 168.832031 C 418.503906 167.972656 419.550781 168.832031 419.171875 167.875 C 418.789062 166.925781 418.503906 166.539062 417.738281 165.78125 C 417.402344 165.441406 417.113281 165.101562 416.886719 164.777344 C 421.875 165.453125 426.996094 165.992188 432.230469 166.402344 C 431.601562 166.699219 431.953125 166.824219 431.375 167.109375 C 430.605469 167.488281 430.796875 167.875 429.75 169.683594 C 428.699219 171.5 429.75 169.6875 429.273438 170.066406 Z M 534.871094 93.1875 C 534.871094 93.1875 534.835938 93.230469 534.8125 93.269531 C 533.75 91.800781 532.679688 90.371094 531.605469 88.992188 C 531.511719 88.589844 531.464844 88.429688 531.007812 88.234375 C 529.601562 86.449219 528.171875 84.726562 526.746094 83.085938 C 527.574219 83.316406 527.632812 83.195312 528.011719 83.464844 C 528.460938 83.78125 528.585938 84.480469 529.035156 84.738281 C 529.480469 84.992188 530.238281 84.988281 530.875 85.113281 C 531.511719 85.242188 531.511719 85.429688 531.765625 85.6875 C 532.019531 85.945312 532.175781 86.515625 532.195312 86.707031 C 532.207031 86.898438 532.339844 87.496094 532.527344 87.707031 C 532.71875 87.910156 532.53125 88.101562 533.035156 88.546875 C 533.542969 88.992188 533.414062 89.039062 534.121094 89.207031 C 534.820312 89.378906 534.820312 89.378906 534.820312 89.378906 C 534.820312 89.378906 534.945312 89.5625 534.820312 90.328125 C 534.683594 91.09375 534.871094 93.1875 534.871094 93.1875 Z M 527.441406 86.242188 C 527.097656 86.777344 526.714844 87.316406 526.996094 87.707031 C 527.378906 88.230469 527.0625 88.613281 527.761719 89.121094 C 528.460938 89.628906 528.339844 89.628906 528.648438 90.011719 C 528.964844 90.390625 528.398438 91.03125 529.03125 91.664062 C 529.667969 92.300781 529.601562 93 530.488281 92.617188 C 531.378906 92.238281 530.878906 93 531.410156 91.855469 C 531.480469 91.699219 531.566406 91.585938 531.632812 91.492188 C 535.011719 95.953125 538.058594 100.527344 540.789062 105.179688 C 540.160156 105.5 539.875 105.765625 540.015625 106.402344 C 540.242188 107.378906 541.574219 108.929688 542.507812 110.015625 C 537.328125 113.195312 531.050781 116.0625 523.921875 118.554688 C 519.503906 107.804688 514.34375 98.464844 509.089844 90.515625 C 508.066406 88.960938 507.023438 87.460938 505.980469 85.980469 C 511.78125 83.984375 516.8125 81.636719 520.953125 79.03125 C 523.230469 81.390625 525.398438 83.792969 527.441406 86.242188 Z M 435.824219 165.144531 C 435.820312 165.144531 435.808594 165.144531 435.800781 165.144531 C 429.160156 164.703125 422.671875 164.042969 416.410156 163.195312 C 416.410156 163.160156 416.410156 163.128906 416.410156 163.011719 C 416.410156 162.726562 416.410156 161.675781 416.410156 160.730469 C 416.410156 159.773438 416.597656 159.199219 416.410156 158.25 C 416.21875 157.296875 416.789062 157.394531 416.980469 156.914062 C 417.167969 156.4375 417.457031 156.632812 418.503906 155.867188 C 419.550781 155.105469 418.503906 154.433594 418.3125 154.152344 C 418.125 153.863281 418.21875 153.578125 418.21875 153.105469 C 418.21875 152.625 418.699219 152.722656 418.699219 152.4375 C 418.699219 152.148438 421.9375 150.433594 423.65625 149.863281 C 425.367188 149.292969 424.320312 149.484375 425.367188 149.386719 C 426.414062 149.292969 426.609375 149.769531 428.726562 150.816406 C 430.835938 151.863281 429.75 150.910156 430.511719 150.816406 C 431.277344 150.71875 431.851562 150.816406 432.515625 150.816406 C 433.183594 150.816406 433.46875 150.433594 433.5625 150.148438 C 433.660156 149.863281 432.992188 149.480469 432.992188 149.195312 C 432.992188 148.910156 434.230469 149.101562 434.800781 149.101562 C 435.367188 149.101562 436.136719 149.101562 437.183594 149.101562 C 438.230469 149.101562 438.707031 149.195312 439.183594 149.671875 C 439.660156 150.152344 440.042969 150.433594 441.183594 151.011719 C 442.328125 151.582031 441.945312 151.101562 442.613281 151.101562 C 443.28125 151.101562 443.28125 151.101562 443.949219 151.101562 C 444.617188 151.101562 444.328125 151.867188 444.425781 152.722656 C 444.523438 153.582031 444.808594 154.15625 444.808594 154.15625 C 444.808594 154.15625 444.808594 154.15625 444.808594 155.296875 C 444.808594 156.441406 445.089844 156.15625 445.382812 156.34375 C 445.664062 156.53125 447.09375 159.304688 448.242188 159.113281 C 449.382812 158.921875 448.808594 158.726562 449.195312 158.152344 C 449.574219 157.582031 449.667969 155.960938 449.667969 155.960938 C 449.667969 155.960938 449.003906 155.105469 448.808594 154.722656 C 448.621094 154.34375 448.242188 153.101562 448.148438 152.527344 C 448.050781 151.953125 447.957031 151.097656 447.765625 150.816406 C 447.570312 150.527344 447.765625 149.195312 447.671875 148.148438 C 447.570312 147.097656 448.050781 147 448.148438 146.621094 C 448.242188 146.242188 449.003906 145.671875 449.195312 145.378906 C 449.386719 145.09375 450.242188 144.523438 450.625 143.949219 C 450.871094 143.585938 451.292969 143.355469 451.75 143.128906 C 451.636719 150.238281 451.554688 157.453125 451.519531 164.699219 C 450.65625 164.316406 449.386719 163.660156 449.386719 163.660156 C 449.386719 163.660156 448.433594 162.824219 447.675781 162.636719 C 446.910156 162.445312 445.863281 162.636719 444.910156 162.636719 C 443.957031 162.636719 441.859375 162.976562 441.574219 163.660156 C 441.292969 164.347656 440.90625 165.207031 440.90625 165.207031 C 440.90625 165.207031 441.289062 165.207031 441.859375 165.207031 C 442.429688 165.207031 442.429688 164.921875 443 164.730469 C 443.578125 164.539062 443.480469 163.597656 444.242188 163.875 C 445.003906 164.15625 446.054688 163.5 446.71875 163.875 C 447.382812 164.253906 448.433594 165.207031 448.433594 165.207031 C 448.433594 165.207031 448.625 164.730469 448.914062 165.207031 C 449.015625 165.378906 449.304688 165.558594 449.644531 165.730469 C 444.964844 165.644531 440.363281 165.441406 435.824219 165.144531 Z M 426.664062 71.421875 C 428.226562 71.234375 428.035156 70.660156 429.558594 70.183594 C 431.085938 69.707031 431.179688 69.039062 431.847656 69.417969 C 432.515625 69.796875 431.65625 70.5625 432.609375 70.757812 C 433.5625 70.945312 433.753906 71.773438 434.800781 71.503906 C 435.851562 71.234375 434.992188 71.898438 435.851562 71.234375 C 436.707031 70.5625 436.992188 71.515625 436.707031 70.5625 C 436.421875 69.613281 435.367188 69.039062 435.183594 68.183594 C 434.992188 67.324219 434.613281 68.15625 434.800781 66.976562 C 434.992188 65.800781 434.898438 65.609375 435.085938 65.035156 C 435.277344 64.460938 435.277344 64.277344 435.277344 63.699219 C 435.277344 63.128906 435.5625 63.324219 434.039062 63.128906 C 433.9375 63.117188 433.839844 63.125 433.742188 63.125 C 434.414062 62.355469 435.074219 61.621094 435.730469 60.890625 C 437.140625 60.5 435.910156 60.828125 437.277344 60.460938 C 437.632812 60.367188 437.832031 60.339844 437.953125 60.335938 C 438.007812 60.34375 438.0625 60.359375 438.121094 60.367188 C 438.148438 60.386719 438.167969 60.390625 438.199219 60.382812 C 439.0625 60.535156 439.953125 60.652344 440.839844 60.785156 C 440.792969 60.984375 441.046875 60.90625 441.339844 61.199219 C 441.664062 61.507812 440.902344 61.414062 441.664062 61.507812 C 442.425781 61.605469 441.570312 61.507812 442.425781 61.605469 C 443.285156 61.699219 443.09375 62.082031 443.664062 61.605469 C 443.730469 61.550781 443.769531 61.519531 443.824219 61.476562 C 442.683594 64.023438 441.46875 66.808594 440.226562 69.710938 C 439.792969 70.199219 439.871094 70.125 440.007812 70.234375 C 439.273438 71.941406 438.539062 73.710938 437.785156 75.527344 C 437.453125 75.546875 437.660156 75.136719 437.660156 75.136719 C 437.660156 75.136719 437.660156 74.1875 437.089844 73.894531 C 436.519531 73.613281 437.089844 73.894531 436.230469 74.089844 C 435.371094 74.28125 435.664062 74.183594 435.183594 73.992188 C 434.707031 73.800781 433.945312 73.613281 433.082031 73.136719 C 432.230469 72.65625 432.515625 72.945312 431.945312 72.65625 C 431.375 72.371094 431.277344 72.179688 430.800781 71.511719 C 430.328125 70.847656 429.660156 72.179688 429.371094 72.371094 C 429.089844 72.5625 426.988281 73.136719 426.988281 73.136719 C 426.988281 73.136719 426.988281 73.136719 426.988281 72.753906 C 426.988281 72.375 426.324219 72.375 426.324219 72.375 C 426.324219 72.375 426.121094 72.421875 425.8125 72.464844 C 426.097656 72.117188 426.382812 71.765625 426.664062 71.421875 Z M 448.53125 55.699219 C 448.429688 56.558594 449.003906 56.839844 449.289062 56.890625 C 449.574219 56.9375 449.574219 57.890625 449.574219 57.890625 C 449.574219 57.890625 447.570312 59.03125 447.378906 58.75 C 447.308594 58.636719 447.113281 58.507812 446.894531 58.375 C 447.410156 57.238281 447.914062 56.148438 448.398438 55.105469 C 448.480469 55.3125 448.550781 55.503906 448.53125 55.699219 Z M 457.199219 53.3125 C 457.488281 53.121094 458.152344 51.40625 458.25 50.929688 C 458.34375 50.453125 458.25 49.695312 458.25 49.121094 C 458.25 48.550781 457.386719 48.359375 456.71875 48.167969 C 456.601562 48.136719 456.5 48.148438 456.398438 48.152344 C 456.535156 45.347656 456.648438 43.179688 456.71875 41.777344 C 457.789062 43.050781 459.515625 45.21875 461.644531 48.273438 C 461.398438 48.429688 461.125 48.628906 460.976562 48.773438 C 460.785156 48.964844 459.644531 49.28125 459.574219 49.535156 C 459.515625 49.789062 459.320312 50.359375 459.320312 50.359375 C 459.320312 50.359375 459.828125 50.867188 459.320312 51.1875 C 458.816406 51.5 458.628906 52.902344 458.875 53.15625 C 459.128906 53.410156 459.328125 53.535156 459.195312 53.855469 C 459.066406 54.175781 458.308594 54.867188 458.117188 54.996094 C 457.925781 55.125 457.226562 55.699219 457.160156 56.207031 C 457.101562 56.714844 457.421875 57.476562 457.613281 57.921875 C 457.796875 58.363281 458.238281 57.792969 458.179688 58.875 C 458.148438 59.398438 458.222656 59.898438 458.429688 60.230469 C 457.5625 60.25 456.699219 60.277344 455.828125 60.277344 C 455.929688 58.042969 456.019531 55.984375 456.109375 54.078125 C 456.382812 53.804688 456.964844 53.464844 457.199219 53.3125 Z M 455.4375 99.632812 C 455.597656 100.34375 454.980469 100.699219 454.269531 101.007812 C 454.328125 99.148438 454.390625 97.3125 454.449219 95.507812 C 455.050781 95.835938 454.945312 96.011719 455.4375 97.347656 C 455.957031 98.777344 455.195312 98.585938 455.4375 99.632812 Z M 446.242188 59.800781 C 446.292969 59.828125 446.324219 59.835938 446.371094 59.859375 C 446.316406 59.855469 446.277344 59.847656 446.226562 59.839844 C 446.230469 59.828125 446.234375 59.816406 446.242188 59.800781 Z M 454.226562 61.777344 C 454.191406 62.644531 454.160156 63.523438 454.113281 64.429688 C 453.988281 64.347656 453.875 64.261719 453.738281 64.175781 C 453.136719 63.796875 451.667969 63.699219 450.527344 63.699219 C 449.386719 63.699219 447.859375 64.839844 447.097656 65.316406 C 446.332031 65.800781 447.097656 65.316406 446.050781 67.703125 C 445 70.085938 446.332031 68.464844 446.523438 69.417969 C 446.71875 70.371094 446.523438 69.417969 446.71875 69.894531 C 446.910156 70.371094 447.671875 70.65625 448.148438 71.609375 C 448.625 72.566406 448.242188 72.277344 448.148438 73.136719 C 448.054688 73.992188 447.765625 74.183594 447.195312 75.039062 C 446.621094 75.898438 446.816406 75.707031 446.054688 75.996094 C 445.285156 76.277344 445.574219 75.898438 445.574219 75.898438 C 445.574219 75.898438 445.765625 73.796875 445.671875 73.515625 C 445.574219 73.234375 445.671875 72.5625 445.285156 72.75 C 444.910156 72.941406 444.433594 73.324219 444.148438 72.847656 C 443.863281 72.371094 443.957031 72.179688 443.957031 72.179688 C 443.957031 72.179688 443.003906 71.605469 442.8125 71.324219 C 442.625 71.035156 443.003906 70.464844 443.003906 70.464844 C 443.003906 70.464844 443.578125 69.609375 443.578125 69.320312 C 443.578125 69.035156 443.578125 68.371094 443.578125 68.371094 L 443.386719 67.128906 L 443.386719 66.242188 C 443.457031 66.078125 443.53125 65.910156 443.601562 65.746094 L 444.246094 65.316406 L 445.675781 64.746094 L 445.964844 63.507812 L 446.53125 62.652344 C 446.53125 62.652344 448.917969 62.746094 449.296875 62.746094 C 449.671875 62.746094 451.867188 62.839844 452.253906 62.839844 C 452.609375 62.839844 452.789062 61.882812 452.8125 61.746094 C 453.28125 61.761719 453.753906 61.769531 454.226562 61.777344 Z M 455.4375 71.328125 C 455.863281 71.515625 456.054688 72.183594 456.4375 73.234375 C 456.820312 74.28125 456.628906 74.089844 456.914062 74.089844 C 457.199219 74.089844 457.773438 74.757812 457.773438 74.757812 C 457.773438 74.757812 459.199219 76 459.199219 76.757812 C 459.199219 77.519531 458.917969 77.519531 458.441406 77.902344 C 457.960938 78.28125 457.773438 78.855469 457.675781 79.429688 C 457.582031 80 458.058594 80.953125 457.488281 81.046875 C 456.914062 81.140625 456.914062 81.140625 455.441406 81.140625 C 455.25 81.140625 455.089844 81.152344 454.964844 81.171875 C 455.089844 77.707031 455.226562 74.402344 455.355469 71.28125 C 455.375 71.292969 455.417969 71.316406 455.4375 71.328125 Z M 434.820312 90.867188 C 434.8125 90.777344 434.800781 90.714844 434.800781 90.578125 C 434.800781 89.628906 435.28125 89.054688 435.5625 88.007812 C 435.851562 86.960938 436.136719 87.339844 438.140625 85.8125 C 440.140625 84.289062 439.28125 85.335938 440.046875 85.148438 C 440.808594 84.957031 440.617188 85.050781 441.09375 84.007812 C 441.570312 82.957031 442.332031 83.429688 443.476562 82.859375 C 444.617188 82.289062 443.476562 82.859375 444.617188 82.289062 C 445.761719 81.71875 444.617188 82.289062 444.523438 81.242188 C 444.425781 80.195312 443.757812 80.480469 445 80.480469 C 446.242188 80.480469 445.957031 80.003906 445.957031 80.003906 C 445.957031 80.003906 445.957031 80.003906 446.332031 79.335938 C 446.714844 78.667969 447.003906 79.523438 447.285156 79.523438 C 447.570312 79.523438 448.148438 79.523438 449.003906 79.046875 C 449.855469 78.566406 450.433594 78.285156 450.90625 77.90625 C 451.386719 77.523438 451.480469 77.425781 451.667969 76.472656 C 451.859375 75.523438 451.289062 75.617188 451.195312 74.949219 C 451.097656 74.28125 451.480469 74.1875 451.382812 73.613281 C 451.289062 73.042969 451.289062 72.753906 451.289062 72.753906 C 451.289062 72.753906 451.289062 72.277344 451.574219 71.609375 C 451.859375 70.945312 452.050781 71.515625 452.621094 71.234375 C 453.1875 70.949219 453.480469 71.136719 453.734375 70.757812 C 453.757812 70.71875 453.8125 70.734375 453.847656 70.71875 C 453.582031 77.089844 453.3125 84.242188 453.042969 91.976562 C 446.742188 91.894531 440.644531 91.515625 434.820312 90.867188 Z M 446.996094 61.46875 C 446.984375 62.152344 446.792969 62.082031 446.242188 62.082031 C 445.785156 62.082031 445.472656 62.238281 445.046875 62.476562 C 445.210938 62.085938 445.386719 61.714844 445.554688 61.332031 C 446.039062 61.378906 446.507812 61.433594 446.996094 61.46875 Z M 440.769531 72.328125 C 440.917969 72.464844 441.058594 72.597656 441.09375 72.851562 C 441.191406 73.519531 441.09375 72.851562 440.808594 73.328125 C 440.523438 73.804688 440.421875 73.996094 439.878906 74.457031 C 440.171875 73.742188 440.46875 73.027344 440.769531 72.328125 Z M 452.996094 93.5 C 452.902344 96.195312 452.8125 98.949219 452.722656 101.765625 C 452.289062 102.074219 452.195312 102.394531 452.054688 103.253906 C 451.863281 104.394531 452.53125 103.917969 452.4375 105.636719 C 452.335938 107.351562 452.335938 106.496094 451.574219 107.445312 C 450.8125 108.398438 450.433594 107.921875 449.855469 107.824219 C 449.289062 107.730469 448.71875 105.917969 448.527344 104.679688 C 448.335938 103.441406 448.71875 103.441406 448.617188 102.203125 C 448.527344 100.964844 448.144531 101.0625 447.1875 100.390625 C 446.238281 99.722656 445.953125 100.011719 444.996094 99.722656 C 444.042969 99.441406 443.949219 99.535156 442.710938 98.964844 C 441.46875 98.390625 442.523438 98.199219 441.851562 97.4375 C 441.183594 96.675781 440.515625 96.484375 439.65625 96.007812 C 438.800781 95.53125 438.136719 95.148438 437.5625 94.960938 C 436.988281 94.769531 436.894531 94.195312 436.796875 93.246094 C 436.765625 92.941406 436.667969 92.738281 436.539062 92.566406 C 441.839844 93.109375 447.339844 93.425781 452.996094 93.5 Z M 437.375 114.691406 C 437.757812 114.691406 438.898438 113.835938 440.429688 112.84375 C 440.429688 112.84375 440.429688 112.84375 441 113.167969 C 441.570312 113.488281 441 113.167969 440.902344 113.453125 C 440.808594 113.738281 441.378906 113.738281 441.855469 114.5 C 442.335938 115.261719 444.8125 116.882812 444.617188 117.363281 C 444.429688 117.839844 444.617188 117.363281 441.378906 117.839844 C 438.140625 118.316406 441.378906 117.839844 440.429688 117.742188 C 439.46875 117.648438 439.46875 116.980469 438.898438 116.792969 C 438.328125 116.601562 438.421875 116.125 437.277344 116.027344 C 436.136719 115.933594 437.277344 116.027344 436.230469 116.125 C 435.183594 116.21875 435.753906 116.316406 434.898438 116.125 C 434.042969 115.933594 434.042969 115.644531 434.042969 115.644531 C 434.042969 115.644531 436.996094 114.691406 437.375 114.691406 Z M 469.886719 91.457031 C 469.570312 90.929688 469.289062 90.46875 468.917969 90.101562 C 468.351562 89.53125 468.917969 90.101562 468.253906 91.058594 C 467.585938 92.007812 468.253906 91.058594 468.402344 91.4375 C 468.417969 91.46875 468.402344 91.515625 468.386719 91.554688 C 467.046875 91.648438 465.683594 91.714844 464.320312 91.777344 C 463.925781 91.5625 463.515625 91.269531 463.109375 90.863281 C 462.34375 90.101562 463.015625 89.90625 462.824219 88.957031 C 462.636719 88.007812 462.726562 88.480469 462.058594 88.195312 C 461.394531 87.910156 461.203125 87.910156 460.921875 87.433594 C 460.632812 86.957031 459.867188 86.765625 459.300781 86.574219 C 458.722656 86.382812 458.058594 86.382812 456.628906 86.195312 C 455.195312 86.003906 455.867188 86.480469 455.441406 87.054688 C 455.203125 87.367188 454.925781 87.859375 454.691406 88.613281 C 454.746094 87.101562 454.796875 85.613281 454.851562 84.15625 C 455.042969 84.140625 455.242188 84.09375 455.4375 84.003906 C 456.054688 83.714844 456.820312 82.859375 456.820312 82.859375 C 456.820312 82.859375 457.769531 83.335938 458.816406 84.289062 C 459.863281 85.242188 460.535156 85.8125 461.199219 86.671875 C 461.863281 87.53125 462.441406 87.914062 464.34375 87.054688 C 466.25 86.195312 464.921875 86.960938 466.25 86.671875 C 467.585938 86.386719 466.628906 85.8125 466.25 85.335938 C 465.871094 84.859375 465.203125 84.765625 464.253906 84.382812 C 463.296875 84.007812 463.390625 83.714844 464.253906 83.8125 C 465.109375 83.90625 466.152344 83.90625 467.394531 83.523438 C 468.636719 83.144531 467.871094 82.484375 467.871094 82.484375 C 467.871094 82.484375 466.347656 81.90625 464.824219 80.667969 C 463.296875 79.429688 463.867188 79.621094 463.683594 79.050781 C 463.492188 78.476562 464.921875 78.765625 465.300781 78.765625 C 465.679688 78.765625 466.15625 79.433594 467.113281 80.289062 C 468.0625 81.144531 467.679688 80.101562 467.679688 79.8125 C 467.679688 79.527344 467.300781 77.90625 466.921875 76.855469 C 466.542969 75.808594 465.207031 76.378906 464.730469 76.097656 C 464.253906 75.808594 462.34375 74.09375 462.152344 73.804688 C 461.96875 73.519531 461.867188 69.992188 461.203125 69.515625 C 460.539062 69.039062 459.675781 68.847656 459.105469 68.375 C 458.527344 67.898438 457.769531 67.417969 457.199219 66.945312 C 456.683594 66.511719 456.089844 65.875 455.597656 65.46875 C 455.652344 64.210938 455.703125 62.984375 455.757812 61.808594 C 459.097656 61.800781 462.339844 61.628906 465.476562 61.335938 C 466.179688 62.023438 466.890625 62.761719 467.394531 63.199219 C 468.21875 63.898438 469.179688 64.019531 469.300781 65.863281 C 469.429688 67.707031 470 67.515625 470.886719 67.515625 C 471.777344 67.515625 472.472656 67.898438 472.667969 68.023438 C 472.855469 68.15625 472.226562 68.726562 472.035156 69.167969 C 471.84375 69.613281 471.144531 70.125 471.777344 71.136719 C 472.414062 72.15625 471.277344 72.792969 472.703125 72.597656 C 473.726562 72.460938 474.335938 71.707031 474.71875 71.316406 C 474.878906 71.664062 475.042969 72.03125 475.207031 72.386719 C 475.171875 72.742188 475.125 73.121094 475.078125 73.488281 C 474.953125 74.566406 473.910156 76.351562 475.257812 77.496094 C 476.605469 78.636719 476.859375 79.144531 477.9375 79.652344 C 478.140625 79.742188 478.292969 79.84375 478.449219 79.941406 C 479.738281 83.125 480.996094 86.511719 482.210938 90.089844 C 478.246094 90.679688 474.125 91.136719 469.886719 91.457031 Z M 460.09375 60.171875 C 461.054688 59.632812 462.074219 58.90625 462.824219 59.066406 C 463.582031 59.226562 463.375 59.414062 463.925781 59.9375 C 462.660156 60.039062 461.382812 60.121094 460.09375 60.171875 Z M 481.375 83.21875 C 482.085938 83.835938 482.183594 84.101562 483.21875 84.480469 C 484.425781 84.925781 483.980469 85.304688 484.675781 85.878906 C 485.375 86.453125 485.886719 86.382812 486.964844 86.382812 C 488.046875 86.382812 488.492188 87.40625 489.066406 87.527344 C 489.632812 87.65625 489.832031 87.847656 490.269531 87.527344 C 490.714844 87.210938 490.714844 87.976562 490.714844 86.765625 C 490.714844 85.558594 490.976562 86.261719 490.714844 84.859375 C 490.460938 83.460938 489.511719 79.90625 488.621094 78.320312 C 487.730469 76.730469 488.175781 76.796875 488.9375 76.097656 C 489.699219 75.394531 490.523438 75.589844 490.523438 74.378906 C 490.523438 73.171875 489.824219 72.917969 490.523438 71.328125 C 490.804688 70.691406 491.101562 70.460938 491.335938 70.257812 C 495.417969 74.734375 499.558594 79.695312 503.574219 85.230469 C 497.621094 87.136719 490.957031 88.703125 483.757812 89.84375 C 482.976562 87.554688 482.183594 85.34375 481.375 83.21875 Z M 454.300781 60.25 C 452.160156 60.230469 450.054688 60.144531 447.996094 59.992188 C 447.640625 59.449219 449.601562 59.683594 450.050781 59.414062 C 450.527344 59.125 452.144531 59.695312 452.144531 59.695312 C 452.144531 59.695312 453.007812 59.886719 453.738281 59.792969 C 454.074219 59.746094 454.167969 59.785156 454.199219 59.835938 C 454.234375 59.746094 454.285156 59.59375 454.339844 59.429688 C 454.328125 59.707031 454.3125 59.972656 454.300781 60.25 Z M 446.808594 54.925781 C 446.164062 54.574219 445.800781 54.28125 445.363281 54.273438 C 444.808594 54.265625 445.476562 54.457031 444.808594 54.265625 C 444.144531 54.078125 443.378906 54.273438 443.378906 54.273438 C 443 54.746094 443.1875 54.175781 443 54.746094 C 442.808594 55.320312 442.808594 56.34375 443.1875 56.3125 C 443.570312 56.269531 443 55.984375 443.570312 56.269531 C 444.144531 56.558594 443.664062 56.558594 444.144531 56.558594 C 444.617188 56.558594 444.558594 56.253906 444.925781 56.308594 C 445.285156 56.363281 444.523438 55.890625 445.285156 56.363281 C 445.617188 56.570312 445.808594 56.667969 445.96875 56.734375 C 445.550781 57.640625 445.109375 58.625 444.671875 59.589844 C 444.660156 59.582031 444.636719 59.5625 444.636719 59.5625 C 444.636719 59.5625 444.59375 59.613281 444.550781 59.675781 C 444.351562 59.648438 444.152344 59.632812 443.957031 59.613281 C 443.957031 59.59375 443.949219 59.582031 443.957031 59.5625 C 444.046875 58.460938 444.046875 58.460938 444.046875 58.460938 L 443.667969 57.972656 C 443.667969 57.972656 443.398438 57.871094 442.867188 57.972656 C 442.335938 58.082031 441.578125 58.75 441.625 59.03125 C 441.660156 59.269531 441.957031 59.027344 441.773438 59.328125 C 441.148438 59.238281 440.511719 59.152344 439.894531 59.058594 C 439.914062 58.960938 439.9375 58.878906 439.953125 58.734375 C 440.046875 57.890625 439.953125 56.953125 439.953125 56.953125 C 439.953125 56.953125 440.089844 56.425781 440.449219 55.714844 C 445.441406 50.339844 449.574219 46.21875 452.203125 43.675781 C 450.910156 46.265625 449.03125 50.125 446.808594 54.925781 Z M 461.011719 128.703125 C 461.589844 127.9375 462.347656 129.085938 464.347656 127.65625 C 466.347656 126.222656 465.109375 127.082031 465.300781 126.609375 C 465.492188 126.128906 465.300781 126.035156 465.300781 125.5625 C 465.300781 125.082031 465.679688 124.320312 465.679688 124.03125 C 465.679688 123.746094 466.253906 123.363281 466.824219 122.890625 C 467.394531 122.417969 467.585938 122.511719 468.445312 122.125 C 469.300781 121.746094 469.683594 121.363281 469.964844 121.179688 C 470.257812 120.988281 470.542969 120.320312 472.355469 119.175781 C 474.160156 118.03125 472.445312 119.839844 472.253906 120.320312 C 472.066406 120.796875 470.449219 122.125 470.730469 123.464844 C 471.015625 124.796875 471.207031 123.84375 472.253906 123.65625 C 473.300781 123.464844 474.925781 121.84375 475.210938 121.363281 C 475.496094 120.886719 477.878906 119.078125 477.785156 118.699219 C 477.6875 118.316406 477.6875 117.839844 477.6875 117.839844 C 477.6875 117.839844 476.832031 117.554688 475.691406 116.984375 C 474.542969 116.410156 475.691406 116.984375 473.976562 116.503906 C 472.253906 116.027344 473.976562 116.503906 473.210938 115.648438 C 472.449219 114.792969 473.210938 115.648438 472.164062 115.269531 C 471.117188 114.886719 472.164062 115.269531 472.164062 114.601562 C 472.164062 113.933594 473.121094 114.121094 473.878906 112.84375 C 474.644531 111.566406 474.355469 111.929688 473.878906 111.359375 C 473.402344 110.789062 473.300781 111.265625 472.253906 111.265625 C 471.210938 111.265625 471.117188 111.359375 469.5 111.835938 C 467.875 112.316406 469.5 111.835938 468.832031 112.847656 C 468.164062 113.859375 468.355469 113.554688 467.875 113.9375 C 467.398438 114.316406 466.921875 114.605469 465.113281 114.796875 C 463.300781 114.984375 465.113281 114.796875 465.394531 114.21875 C 465.683594 113.644531 465.394531 114.21875 466.351562 112.847656 C 467.300781 111.472656 467.210938 112.03125 467.683594 111.359375 C 468.164062 110.691406 469.117188 110.507812 469.785156 110.027344 C 470.453125 109.546875 470.925781 109.742188 471.878906 109.546875 C 472.835938 109.359375 474.839844 109.546875 476.742188 109.453125 C 478.644531 109.359375 478.363281 109.167969 478.839844 108.597656 C 479.316406 108.023438 479.886719 106.882812 480.082031 106.210938 C 480.273438 105.542969 480.75 105.640625 480.941406 105.359375 C 481.128906 105.070312 482.175781 104.117188 482.082031 103.542969 C 481.980469 102.972656 481.890625 102.402344 481.414062 102.113281 C 480.9375 101.832031 480.464844 101.832031 479.507812 101.449219 C 478.558594 101.070312 478.75 101.257812 478.75 100.113281 C 478.75 98.972656 478.75 100.113281 478.460938 100.019531 C 478.179688 99.921875 476.746094 99.257812 475.601562 98.777344 C 474.457031 98.300781 475.035156 98.683594 473.792969 98.398438 C 472.554688 98.113281 472.648438 96.109375 472.171875 95.632812 C 471.761719 95.226562 471.277344 93.9375 470.738281 92.910156 C 474.847656 92.574219 478.867188 92.117188 482.726562 91.53125 C 483.433594 93.65625 484.132812 95.839844 484.800781 98.101562 C 485.980469 102.050781 487.105469 106.324219 488.160156 110.878906 C 487.804688 110.515625 487.753906 110.535156 487.417969 110.171875 C 486.992188 109.695312 488.183594 109.742188 486.800781 109.457031 C 485.421875 109.171875 484.945312 109.074219 484.566406 109.171875 C 484.183594 109.265625 483.945312 109.222656 483.945312 109.222656 C 483.945312 109.222656 483.800781 109.171875 483.609375 108.980469 C 483.417969 108.792969 483.179688 108.3125 483.179688 107.933594 C 483.179688 107.554688 483.179688 107.078125 483.179688 106.789062 C 483.179688 106.507812 483.371094 106.171875 483.132812 106.21875 C 482.894531 106.269531 482.65625 106.21875 482.65625 106.21875 C 481.890625 107.316406 481.035156 107.789062 481.078125 108.125 C 481.128906 108.460938 480.980469 108.980469 481.078125 109.222656 C 481.179688 109.460938 481.109375 109.746094 481.042969 110.125 C 480.988281 110.507812 480.792969 110.460938 480.65625 111.175781 C 480.511719 111.890625 480.222656 112.417969 480.222656 112.605469 C 480.222656 112.796875 480.03125 112.890625 480.222656 113.414062 C 480.414062 113.9375 478.9375 113.699219 480.414062 113.9375 C 481.890625 114.175781 481.417969 113.84375 482.941406 113.9375 C 484.464844 114.03125 484.039062 113.792969 485.371094 113.605469 C 486.707031 113.414062 487.085938 113.078125 487.375 113.125 C 487.65625 113.175781 487.039062 113.632812 486.800781 114.023438 C 486.5625 114.414062 487.417969 114.414062 488.042969 114.414062 C 488.488281 114.414062 488.710938 114.605469 488.984375 114.570312 C 489.785156 118.300781 490.523438 122.21875 491.183594 126.320312 C 481.636719 127.71875 471.476562 128.578125 460.960938 128.800781 C 460.976562 128.757812 460.984375 128.738281 461.011719 128.703125 Z M 490.265625 113.296875 C 490.296875 113.183594 490.269531 113.0625 490.179688 112.90625 C 488.96875 107.414062 487.644531 102.328125 486.261719 97.664062 C 485.609375 95.464844 484.929688 93.355469 484.242188 91.277344 C 491.582031 90.09375 498.371094 88.460938 504.441406 86.476562 C 505.59375 88.085938 506.738281 89.707031 507.859375 91.410156 C 513.027344 99.246094 518.121094 108.460938 522.480469 119.050781 C 513.660156 122.015625 503.589844 124.410156 492.683594 126.089844 C 491.953125 121.601562 491.144531 117.339844 490.265625 113.296875 Z M 505.097656 84.746094 C 500.765625 78.734375 496.28125 73.335938 491.863281 68.546875 C 491.859375 68.433594 491.863281 68.34375 491.859375 68.214844 C 491.726562 65.734375 492.304688 66.625 492.683594 65.925781 C 493.066406 65.222656 492.054688 64.207031 491.03125 63.578125 C 490.015625 62.9375 487.789062 61.414062 487.09375 60.460938 C 486.695312 59.921875 485.570312 58.554688 484.496094 57.382812 C 486.605469 56.628906 488.53125 55.785156 490.253906 54.867188 C 497.886719 59.371094 506.167969 65.140625 514.292969 72.527344 C 516.253906 74.308594 518.109375 76.128906 519.921875 77.96875 C 515.84375 80.515625 510.859375 82.804688 505.097656 84.746094 Z M 483.304688 56.171875 C 482.960938 55.851562 482.660156 55.597656 482.457031 55.503906 C 481.503906 55.0625 482.144531 56.207031 480.550781 54.359375 C 478.964844 52.523438 478.203125 52.710938 477.496094 52.457031 C 476.804688 52.203125 476.234375 51.886719 475.402344 51.1875 C 474.578125 50.488281 475.152344 50.875 474.257812 50.363281 C 473.367188 49.855469 473.1875 49.542969 471.59375 48.457031 C 470.652344 47.820312 469.835938 47.832031 469.304688 47.941406 C 465.671875 45.171875 462.597656 43.0625 460.367188 41.617188 C 460.785156 41.714844 461.289062 41.832031 461.753906 41.949219 C 466.9375 43.570312 476.921875 47.203125 488.699219 53.96875 C 487.074219 54.757812 485.28125 55.503906 483.304688 56.171875 Z M 467.285156 48.328125 C 467.148438 48.304688 466.832031 48.140625 466.128906 47.691406 C 464.347656 46.550781 463.273438 46.101562 462.824219 46.296875 C 462.644531 46.371094 462.460938 46.472656 462.292969 46.558594 C 461.300781 45.167969 460.390625 43.9375 459.621094 42.949219 C 461.585938 44.226562 464.1875 46.007812 467.285156 48.328125 Z M 454.84375 48.667969 C 454.078125 48.804688 452.898438 49.699219 452.335938 49.980469 C 451.882812 50.207031 451.222656 50.695312 450.019531 51.644531 C 452.632812 46.144531 454.515625 42.457031 455.226562 41.070312 C 455.15625 42.488281 455.023438 45.074219 454.84375 48.667969 Z M 435.984375 58.335938 C 435.464844 58.230469 434.96875 58.109375 434.464844 57.992188 C 434.519531 57.945312 434.542969 57.941406 434.617188 57.886719 C 435.664062 57.03125 435.28125 57.636719 436.136719 56.953125 C 436.996094 56.269531 435.664062 56.839844 436.996094 56.265625 C 438.332031 55.695312 438.332031 55.695312 438.332031 55.695312 L 438.332031 54.648438 L 436.820312 54.742188 C 436.710938 54.929688 437.375 53.601562 435.757812 54.742188 C 434.136719 55.886719 433.46875 55.695312 433.277344 55.984375 C 433.085938 56.269531 432.421875 56.953125 432.421875 56.953125 C 432.421875 56.953125 431.375 56.304688 431.472656 56.953125 C 431.488281 57.082031 431.492188 57.164062 431.496094 57.25 C 430.160156 56.882812 428.890625 56.484375 427.671875 56.058594 C 437.691406 49.65625 446.066406 45.230469 450.851562 42.855469 C 447.605469 46.007812 442.328125 51.3125 435.984375 58.335938 Z M 434.484375 59.660156 C 434.34375 59.800781 434.273438 59.941406 434.042969 60.269531 C 433.5625 60.9375 432.324219 60.746094 433.5625 60.9375 C 433.59375 60.945312 433.613281 60.949219 433.644531 60.953125 C 432.941406 61.746094 432.253906 62.515625 431.535156 63.339844 C 431.433594 63.257812 431.375 63.117188 431.375 62.847656 C 431.375 61.609375 430.796875 62.65625 431.375 61.609375 C 431.945312 60.558594 432.421875 59.699219 432.039062 59.605469 C 431.660156 59.507812 430.511719 59.605469 430.511719 59.605469 C 429.660156 59.796875 427.941406 59.796875 426.898438 60.652344 C 425.84375 61.511719 425.65625 61.414062 424.988281 62.273438 C 424.320312 63.132812 423.941406 63.132812 423.75 63.414062 C 423.558594 63.699219 422.417969 64.246094 422.984375 64.453125 C 423.558594 64.65625 423.75 64.152344 424.417969 64.453125 C 425.085938 64.75 425.65625 65.417969 425.65625 65.417969 C 425.65625 65.417969 425.65625 65.800781 425.753906 66.179688 C 425.84375 66.558594 424.605469 67.515625 424.703125 67.800781 C 424.796875 68.085938 424.417969 68.847656 424.703125 69.417969 C 424.976562 69.972656 424.578125 69.839844 425.394531 70.585938 C 424.851562 71.25 424.308594 71.90625 423.75 72.585938 C 423.527344 72.59375 423.441406 72.582031 423.273438 72.472656 C 422.988281 72.28125 422.988281 71.609375 422.988281 71.609375 C 422.988281 71.609375 423.847656 71.039062 423.847656 70.757812 C 423.847656 70.472656 423.75 70.085938 423.75 70.085938 L 423.082031 69.230469 C 423.082031 69.230469 422.035156 68.183594 421.886719 67.894531 C 421.734375 67.609375 420.988281 67.414062 420.988281 67.414062 C 420.988281 67.414062 420.792969 66.273438 420.792969 65.316406 C 420.792969 64.367188 419.839844 64.554688 419.839844 64.554688 C 419.839844 64.554688 419.082031 64.554688 418.414062 64.554688 C 417.742188 64.554688 417.363281 64.839844 416.886719 64.9375 C 416.441406 65.027344 415.878906 64.945312 414.640625 64.9375 C 418.542969 62.101562 422.347656 59.5 425.949219 57.15625 C 428.535156 58.125 431.375 58.976562 434.484375 59.660156 Z M 413.429688 65.832031 C 413.453125 65.8125 413.476562 65.796875 413.5 65.78125 C 413.472656 65.796875 413.464844 65.8125 413.429688 65.832031 Z M 453.738281 199.710938 C 453.464844 199.8125 453.359375 199.992188 453.207031 200.164062 C 453.164062 197.609375 453.132812 195.039062 453.101562 192.464844 C 453.15625 192.628906 453.191406 192.753906 453.191406 192.753906 L 454.148438 193.222656 C 454.152344 193.222656 454.246094 199.515625 453.738281 199.710938 Z M 455.566406 165.796875 C 455.390625 165.796875 455.21875 165.796875 455.042969 165.792969 C 455 165.753906 454.964844 165.722656 454.914062 165.683594 C 454.34375 165.207031 454.730469 164.734375 453.390625 164.824219 C 453.226562 164.839844 453.152344 164.851562 453.03125 164.867188 C 453.074219 157.25 453.15625 149.65625 453.28125 142.1875 C 453.636719 141.925781 453.972656 141.667969 454.433594 141.378906 C 455.195312 140.902344 454.433594 141.378906 455.4375 140.238281 C 456.4375 139.09375 455.386719 139.285156 455.4375 138.523438 C 455.480469 137.761719 455.957031 134.421875 456.53125 134.710938 C 457.105469 134.992188 456.53125 134.710938 457.773438 134.804688 C 459.011719 134.898438 457.773438 134.804688 458.253906 133.753906 C 458.726562 132.703125 459.300781 132.613281 459.492188 132.136719 C 459.675781 131.664062 459.867188 131.1875 460.152344 130.339844 C 471.09375 130.152344 481.59375 129.304688 491.425781 127.890625 C 493.070312 138.460938 494.203125 150.25 494.507812 163.257812 C 482.21875 164.910156 469.113281 165.796875 455.566406 165.796875 Z M 492.929688 127.671875 C 504.007812 125.996094 514.179688 123.59375 523.09375 120.597656 C 527.15625 130.757812 530.519531 142.164062 532.648438 154.835938 C 521.8125 158.375 509.4375 161.167969 496.023438 163.050781 C 495.714844 150.042969 494.582031 138.253906 492.929688 127.671875 Z M 490.316406 53.128906 C 484.617188 49.816406 479.34375 47.242188 474.742188 45.234375 C 480.496094 46.796875 487.035156 48.695312 493.648438 50.890625 C 492.675781 51.667969 491.578125 52.425781 490.316406 53.128906 Z M 451.6875 40.75 C 447.105469 42.964844 437.507812 47.894531 425.851562 55.414062 C 422.933594 54.28125 420.441406 52.988281 418.460938 51.582031 C 432.691406 45.453125 444.464844 42.140625 449.824219 40.796875 C 450.445312 40.78125 451.0625 40.761719 451.6875 40.75 Z M 424.210938 56.496094 C 420.445312 58.960938 416.507812 61.667969 412.445312 64.65625 C 412.441406 64.496094 412.460938 64.34375 412.40625 64.175781 C 412.214844 63.601562 412.027344 62.9375 411.738281 62.460938 C 411.453125 61.984375 411.359375 61.320312 411.164062 60.652344 C 410.972656 59.984375 411.070312 59.984375 410.683594 59.316406 C 410.308594 58.648438 409.636719 57.980469 409.445312 57.410156 C 409.253906 56.835938 409.066406 56.835938 408.496094 56.933594 C 407.925781 57.027344 407.921875 56.835938 407.445312 57.027344 C 407.199219 57.125 407.074219 57.050781 406.828125 56.988281 C 410.238281 55.269531 413.574219 53.71875 416.796875 52.300781 C 418.761719 53.855469 421.257812 55.261719 424.210938 56.496094 Z M 398.300781 61.609375 C 398.015625 61.984375 397.820312 61.984375 397.441406 62.179688 C 397.347656 62.226562 397.277344 62.210938 397.21875 62.152344 C 397.597656 61.941406 397.964844 61.746094 398.339844 61.53125 C 398.324219 61.558594 398.320312 61.578125 398.300781 61.609375 Z M 389.246094 73.996094 C 389.53125 73.996094 388.867188 74.472656 388.386719 74.6875 C 388.066406 74.84375 387.960938 75.347656 387.902344 75.777344 C 387.554688 75.511719 387.214844 75.257812 386.890625 74.992188 C 387.539062 74.683594 389.023438 73.996094 389.246094 73.996094 Z M 389.722656 76.28125 C 390.007812 76.28125 390.863281 75.804688 390.863281 75.804688 C 390.863281 75.804688 392.007812 75.328125 392.105469 74.757812 C 392.203125 74.1875 392.488281 77.425781 392.488281 77.425781 C 392.488281 77.425781 392.652344 78.265625 392.738281 78.972656 C 391.296875 78.152344 389.957031 77.296875 388.734375 76.414062 C 389.15625 76.359375 389.589844 76.28125 389.722656 76.28125 Z M 393.828125 81.9375 C 394.019531 82.503906 394.296875 83.34375 394.203125 83.71875 C 394.101562 84.097656 394.011719 84.574219 393.71875 84.960938 C 393.441406 85.339844 393.441406 87.628906 393.054688 88.011719 C 392.675781 88.390625 393.054688 88.960938 392.769531 90.109375 C 392.488281 91.25 393.054688 91.539062 393.054688 91.539062 L 392.769531 92.96875 C 392.769531 92.96875 392.292969 94.589844 392.007812 95.164062 C 391.726562 95.734375 391.53125 96.402344 391.53125 96.402344 C 391.53125 96.402344 391.816406 98.308594 391.152344 98.878906 C 390.484375 99.453125 391.152344 98.878906 390.863281 99.164062 C 390.578125 99.449219 390.484375 100.304688 390.292969 100.976562 C 390.105469 101.640625 391.152344 103.074219 391.246094 103.546875 C 391.339844 104.027344 391.339844 104.5 391.246094 104.882812 C 391.152344 105.265625 391.625 106.3125 391.339844 106.980469 C 391.054688 107.652344 390.195312 110.984375 389.71875 111.9375 C 389.246094 112.890625 388.195312 114.320312 387.527344 115.273438 C 386.902344 116.171875 386.753906 116.683594 385.863281 118.25 C 379.292969 115.890625 373.515625 113.199219 368.679688 110.230469 C 375.203125 101.019531 382.425781 92.910156 389.546875 85.976562 C 390.96875 84.589844 392.398438 83.25 393.828125 81.9375 Z M 386.5 133.644531 C 386.863281 133.898438 386.960938 134.070312 387.625 134.804688 C 388.480469 135.757812 388.480469 140.996094 388.671875 141.953125 C 388.863281 142.902344 390.105469 143.476562 390.105469 143.476562 C 390.105469 143.476562 390.195312 144.144531 390.105469 144.621094 C 390.007812 145.09375 390.105469 145.953125 389.734375 146.332031 C 389.363281 146.714844 389.816406 146.910156 389.816406 146.910156 C 389.816406 146.910156 389.625 147.386719 389.816406 147.765625 C 390.007812 148.148438 389.816406 148.621094 389.816406 148.621094 C 389.816406 148.621094 390.765625 149.292969 391.339844 149.578125 C 391.917969 149.859375 392.386719 150.148438 392.292969 150.433594 C 392.199219 150.714844 392.484375 152.910156 392.578125 153.671875 C 392.671875 154.433594 392.960938 154.433594 392.960938 154.816406 C 392.960938 155.195312 394.007812 156.71875 394.007812 157.011719 C 394.007812 157.296875 394.863281 157.769531 394.863281 157.769531 L 395.339844 157.769531 C 395.339844 157.769531 395.53125 156.527344 395.53125 156.246094 C 395.53125 155.960938 395.53125 155.390625 395.53125 155.390625 C 395.53125 155.390625 395.339844 154.910156 394.863281 154.535156 C 394.386719 154.152344 394.199219 153.003906 394.199219 153.003906 C 394.199219 153.003906 394.199219 151.671875 394.007812 151.386719 C 393.816406 151.101562 393.339844 149.003906 393.339844 149.003906 L 393.050781 147.382812 C 393.050781 147.382812 392.574219 145.761719 392.480469 145.476562 C 392.386719 145.191406 392.386719 144.808594 392.195312 144.429688 C 392.003906 144.046875 392.101562 143 392.101562 143 L 391.339844 140.421875 C 391.339844 140.421875 392.671875 140.046875 393.449219 140.421875 C 394.21875 140.808594 394.289062 142.714844 393.53125 143.859375 C 392.765625 145 397.433594 149.957031 397.433594 149.957031 C 397.433594 149.957031 397.535156 151.011719 397.433594 151.675781 C 397.34375 152.339844 398.386719 152.53125 398.386719 153.195312 C 398.386719 153.863281 401.628906 159.113281 402.109375 160.535156 C 402.140625 160.640625 402.136719 160.746094 402.160156 160.84375 C 393.617188 159.171875 385.617188 157.113281 378.324219 154.71875 C 380.59375 147.535156 383.367188 140.492188 386.5 133.644531 Z M 402.265625 162.382812 C 402.210938 163.285156 402.054688 164.273438 402.113281 165.492188 C 402.203125 167.59375 404.304688 168.832031 404.304688 168.832031 L 406.589844 170.449219 L 408.5 171.113281 C 408.5 171.113281 409.015625 171.402344 409.808594 171.816406 C 408.269531 182.628906 407.390625 193.671875 407.480469 204.554688 C 394.390625 202.371094 382.359375 199.316406 371.898438 195.5625 C 371.867188 193.84375 371.871094 192.105469 371.929688 190.359375 C 372.285156 178.796875 374.476562 167.3125 377.898438 156.125 C 385.359375 158.585938 393.546875 160.683594 402.265625 162.382812 Z M 411.238281 172.554688 C 413.613281 173.75 416.917969 175.308594 418.695312 175.59375 C 421.648438 176.074219 422.886719 174.929688 424.222656 175.59375 C 425.558594 176.261719 427.75 178.644531 428.988281 179.980469 C 430.230469 181.3125 430.132812 180.457031 430.898438 180.929688 C 431.65625 181.402344 431.945312 181.027344 433.660156 181.507812 C 435.367188 181.980469 437.085938 185.3125 437.085938 186.078125 C 437.085938 186.835938 437.65625 187.511719 438.328125 188.648438 C 438.996094 189.796875 439.46875 188.648438 440.519531 188.648438 C 441.570312 188.648438 442.238281 191.230469 442.714844 191.128906 C 443.191406 191.035156 444.71875 191.035156 444.71875 191.035156 C 444.71875 191.035156 446.332031 191.988281 447.097656 192.753906 L 448.339844 191.609375 L 449.671875 190.558594 L 450.816406 190.082031 C 450.816406 190.082031 451.171875 190.230469 451.5625 190.398438 C 451.597656 193.945312 451.644531 197.472656 451.707031 200.96875 C 451.082031 201.433594 450.386719 202.070312 449.960938 202.378906 C 449.289062 202.859375 448.8125 205.332031 448.054688 206.953125 C 447.847656 207.386719 447.710938 207.859375 447.609375 208.324219 C 434.144531 207.972656 421.132812 206.773438 409.007812 204.816406 C 408.898438 194.097656 409.746094 183.222656 411.238281 172.554688 Z M 447.410156 209.847656 C 447.378906 210.394531 447.378906 210.84375 447.378906 210.949219 C 447.378906 211.238281 448.148438 212.003906 448.148438 212.773438 C 448.148438 213.519531 448.148438 212.773438 447.765625 212.863281 C 447.378906 212.953125 446.8125 214.386719 446.433594 214.859375 C 446.050781 215.335938 446.433594 217.050781 446.433594 217.621094 C 446.433594 218.191406 447.191406 218.960938 448.050781 219.246094 C 448.671875 219.453125 450.894531 220.632812 452.257812 221.554688 C 452.527344 228.917969 452.875 236.011719 453.320312 242.730469 C 439.484375 242.621094 426.046875 241.589844 413.46875 239.734375 C 410.585938 229.167969 409.234375 217.921875 409.015625 206.460938 C 421.039062 208.34375 433.957031 209.507812 447.410156 209.847656 Z M 453.832031 223.207031 C 454.382812 224.082031 455.035156 225.214844 455.382812 225.636719 C 455.851562 226.203125 455.773438 227.347656 455.4375 227.925781 C 455.097656 228.492188 456.34375 228.683594 456.628906 229.449219 C 456.910156 230.207031 457.386719 230.109375 457.578125 230.589844 C 457.769531 231.066406 458.527344 231.734375 459.011719 232.496094 C 459.488281 233.257812 461.867188 234.207031 463.109375 234.308594 C 464.347656 234.398438 467.96875 235.257812 468.351562 236.410156 C 468.488281 236.828125 468.339844 239.371094 468.046875 242.484375 C 463.929688 242.652344 459.769531 242.753906 455.566406 242.753906 C 455.328125 242.753906 455.089844 242.75 454.84375 242.75 C 454.433594 236.535156 454.101562 229.988281 453.832031 223.207031 Z M 455.566406 244.28125 C 459.722656 244.28125 463.824219 244.171875 467.898438 244.015625 C 467.363281 249.042969 466.523438 254.832031 465.875 255.652344 C 464.792969 257.007812 464.476562 256.671875 462.417969 265.535156 C 460.597656 265.585938 458.769531 265.644531 456.960938 265.652344 C 456.152344 259.183594 455.480469 251.992188 454.949219 244.269531 C 455.15625 244.273438 455.363281 244.28125 455.566406 244.28125 Z M 479.789062 263.757812 C 479.976562 263.464844 481.503906 263.375 481.886719 263.28125 C 481.886719 263.28125 481.902344 263.277344 481.914062 263.273438 C 481.84375 263.519531 481.773438 263.773438 481.710938 264.019531 C 481.011719 264.113281 480.324219 264.167969 479.625 264.25 C 479.6875 264.007812 479.75 263.816406 479.789062 263.757812 Z M 512.601562 203.023438 C 511.449219 202.675781 511.414062 202.753906 510.765625 202.664062 C 510.097656 202.570312 509.050781 202.472656 507.429688 201.804688 C 505.804688 201.136719 504.28125 201.996094 504.28125 201.996094 L 505.996094 200.46875 C 505.996094 200.46875 506.09375 199.226562 505.140625 197.515625 C 503.902344 191.699219 496.460938 192.175781 495.894531 192.175781 C 495.722656 192.175781 495.539062 192.179688 495.347656 192.167969 C 496.015625 182.449219 496.230469 173.230469 496.0625 164.570312 C 509.523438 162.679688 521.972656 159.871094 532.898438 156.304688 C 534.875 168.761719 535.621094 182.433594 534.660156 197.296875 C 527.855469 199.507812 520.464844 201.433594 512.601562 203.023438 Z M 534.371094 155.828125 C 539.960938 153.941406 545.121094 151.859375 549.804688 149.601562 C 550.082031 151.722656 550.609375 153.679688 551.652344 154.910156 C 554.226562 157.964844 554.226562 157.773438 554.125 160.160156 C 554.035156 162.535156 554.035156 163.964844 554.609375 164.347656 C 555.179688 164.730469 556.417969 167.019531 556.988281 167.777344 C 557.558594 168.539062 557.46875 169.398438 558.324219 170.539062 C 559.148438 171.640625 558.519531 172.128906 561.664062 173.007812 C 562.039062 176.894531 562.300781 180.742188 562.457031 184.53125 C 555.402344 189.207031 546.519531 193.328125 536.230469 196.785156 C 537.144531 181.9375 536.367188 168.28125 534.371094 155.828125 Z M 561.46875 109.640625 C 561.46875 109.640625 559.273438 108.304688 558.886719 108.785156 C 558.511719 109.261719 556.417969 111.832031 556.417969 111.832031 C 556.417969 111.832031 555.558594 114.691406 555.367188 114.980469 C 555.179688 115.265625 551.171875 118.507812 550.980469 118.792969 C 550.816406 119.054688 550.492188 119.875 550.359375 120.878906 C 549.640625 119.199219 548.898438 117.550781 548.140625 115.941406 C 548.261719 115.9375 548.367188 115.921875 548.507812 115.9375 C 549.75 116.03125 551.464844 115.855469 551.753906 116.085938 C 552.035156 116.320312 552.894531 115.9375 553.75 114.886719 C 554.609375 113.839844 554.234375 113.171875 553.75 111.550781 C 553.269531 109.933594 552.324219 109.074219 552.132812 107.832031 C 551.988281 106.914062 551.695312 106.515625 551.507812 105.328125 C 553.53125 103.453125 555.230469 101.503906 556.585938 99.492188 C 558.535156 102.785156 560.335938 106.183594 561.957031 109.667969 Z M 505.648438 53.574219 C 502.667969 52.414062 499.609375 51.300781 496.53125 50.25 C 496.898438 49.851562 497.203125 49.445312 497.492188 49.035156 C 499.941406 50.003906 502.363281 51.035156 504.734375 52.160156 C 504.957031 52.621094 505.285156 53.121094 505.648438 53.574219 Z M 494.933594 49.710938 C 483.945312 46.027344 473.007812 43.121094 465.574219 41.289062 C 476.191406 42.339844 486.402344 44.800781 496.027344 48.460938 C 495.707031 48.886719 495.347656 49.304688 494.933594 49.710938 Z M 442.457031 41.246094 C 436.074219 43.140625 427.1875 46.132812 417.109375 50.511719 C 415.945312 49.519531 415.023438 48.472656 414.394531 47.386719 C 423.320312 44.265625 432.71875 42.164062 442.457031 41.246094 Z M 383.527344 70.832031 C 383.460938 71.074219 383.40625 71.300781 383.367188 71.535156 C 383.257812 71.410156 383.144531 71.289062 383.042969 71.160156 C 383.199219 71.042969 383.367188 70.941406 383.527344 70.832031 Z M 382.917969 73.175781 C 382.820312 73.671875 383.015625 73.898438 382.859375 74.664062 C 382.667969 75.617188 382.859375 74.664062 382.289062 74.949219 C 382.148438 75.015625 382.082031 75.050781 382.046875 75.066406 C 382.046875 75.066406 382.03125 75.078125 382.023438 75.082031 C 382.011719 75.089844 381.988281 75.097656 381.902344 75.136719 C 381.523438 75.328125 381.335938 75.710938 380.957031 75.710938 C 380.574219 75.710938 379.617188 76.28125 379.617188 76.28125 C 379.617188 76.28125 378.757812 76.761719 378.1875 76.761719 C 377.617188 76.761719 377.710938 77.238281 377.046875 77.335938 C 376.382812 77.425781 376.191406 77.425781 375.617188 77.425781 C 375.042969 77.425781 375.617188 78.382812 375.617188 78.382812 C 375.617188 78.382812 377.617188 78.570312 378.375 78.476562 C 379.140625 78.382812 379.429688 78.289062 380 78.097656 C 380.570312 77.90625 381.714844 77.90625 382.195312 77.621094 C 382.667969 77.335938 383.8125 76.667969 383.8125 76.667969 C 383.8125 76.667969 385.242188 76.382812 385.621094 76.285156 C 385.769531 76.25 385.878906 76.140625 385.96875 76.019531 C 387.964844 77.65625 390.308594 79.210938 392.953125 80.667969 C 391.464844 82.03125 389.984375 83.417969 388.515625 84.84375 C 381.308594 91.871094 373.992188 100.074219 367.394531 109.402344 C 361.5625 105.636719 357.253906 101.449219 354.777344 96.964844 C 362.90625 87.164062 372.25 78.902344 381.898438 71.992188 C 382.222656 72.386719 382.5625 72.785156 382.917969 73.175781 Z M 367.871094 111.390625 C 372.765625 114.398438 378.574219 117.132812 385.160156 119.527344 C 384.753906 120.347656 384.847656 120.410156 384.847656 120.410156 C 384.847656 120.410156 385.144531 124.226562 384.960938 125.753906 C 384.769531 127.277344 384.863281 130.800781 384.960938 131.949219 C 385 132.441406 385.085938 132.664062 385.222656 132.820312 C 382.027344 139.785156 379.1875 146.933594 376.878906 154.238281 C 366.941406 150.867188 358.375 146.871094 351.605469 142.375 C 355.769531 130.980469 361.445312 120.636719 367.871094 111.390625 Z M 371.960938 197.398438 C 382.421875 201.097656 394.417969 204.082031 407.492188 206.21875 C 407.699219 217.648438 409.015625 228.894531 411.839844 239.484375 C 400.097656 237.667969 389.140625 235.152344 379.378906 232.003906 C 374.84375 221.070312 372.378906 209.507812 371.960938 197.398438 Z M 413.9375 241.34375 C 426.425781 243.152344 439.738281 244.15625 453.425781 244.246094 C 453.957031 251.976562 454.617188 259.179688 455.421875 265.675781 C 444.007812 265.632812 433.21875 264.652344 423.355469 263.167969 C 419.269531 256.394531 416.179688 249.0625 413.9375 241.34375 Z M 462.066406 267.066406 C 462.0625 267.074219 462.0625 267.085938 462.058594 267.097656 C 459.675781 277.578125 462.058594 279.195312 462.058594 279.195312 C 462.058594 279.195312 463.585938 279.003906 463.867188 278.71875 C 464.15625 278.4375 465.96875 278.4375 466.445312 278.140625 C 466.921875 277.863281 466.921875 277.761719 467.207031 277.292969 C 467.484375 276.816406 467.871094 276.4375 467.871094 276.4375 C 467.871094 276.4375 469.019531 275.289062 469.402344 274.714844 C 469.777344 274.148438 470.351562 273.765625 470.542969 273.191406 C 470.730469 272.621094 470.542969 272.523438 470.542969 272.523438 C 470.542969 272.523438 470.921875 271.476562 471.019531 271.097656 C 471.117188 270.714844 471.6875 270.90625 472.164062 270.714844 C 472.636719 270.519531 473.210938 270.238281 473.402344 269.851562 C 473.59375 269.476562 473.878906 268.527344 473.878906 267.957031 C 473.878906 267.378906 474.644531 267.097656 475.210938 266.808594 C 475.785156 266.519531 476.453125 267.285156 477.789062 267.1875 C 478.371094 267.144531 478.785156 266.539062 479.082031 265.839844 C 479.820312 265.757812 480.550781 265.691406 481.285156 265.605469 C 480.28125 269.386719 479.210938 273.222656 478.074219 277.109375 C 471.929688 278.382812 465.605469 279.175781 459.15625 279.46875 C 458.40625 275.78125 457.75 271.660156 457.160156 267.175781 C 458.78125 267.171875 460.421875 267.113281 462.066406 267.066406 Z M 482.914062 265.429688 C 496.28125 263.695312 509.957031 260.636719 523.800781 256.382812 C 523.804688 256.382812 523.808594 256.386719 523.820312 256.386719 C 523.980469 256.386719 524.140625 256.332031 524.265625 256.242188 C 524.472656 256.175781 524.675781 256.109375 524.882812 256.046875 C 511.667969 265.875 496.363281 273.015625 479.769531 276.714844 C 480.875 272.90625 481.929688 269.136719 482.914062 265.429688 Z M 483.34375 263.820312 C 483.414062 263.535156 483.480469 263.253906 483.550781 262.972656 C 483.960938 262.902344 484.363281 262.839844 484.648438 262.804688 C 485.414062 262.710938 485.695312 262.226562 486.746094 261.847656 C 487.792969 261.472656 487.507812 261.472656 488.84375 260.324219 C 490.183594 259.183594 485.605469 257.085938 486.746094 256.132812 C 487.890625 255.179688 486.9375 256.609375 488.082031 257.375 C 489.222656 258.132812 488.84375 257.5625 489.800781 257.5625 C 490.753906 257.5625 490.84375 257.464844 491.988281 257.179688 C 493.132812 256.902344 493.132812 257.179688 494.089844 256.605469 C 495.039062 256.039062 494.089844 256.605469 495.425781 255.558594 C 496.757812 254.511719 496 255.085938 497.136719 253.941406 C 498.285156 252.796875 497.996094 253.078125 499.140625 251.460938 C 500.28125 249.839844 499.996094 250.128906 503.8125 247.84375 C 507.621094 245.554688 504.382812 246.320312 504.1875 244.789062 C 504.003906 243.265625 504.476562 243.746094 505.144531 242.414062 C 505.570312 241.546875 509.492188 239.953125 512.921875 238.585938 C 518.539062 237.390625 523.902344 236.027344 528.988281 234.492188 C 527.417969 241.128906 525.507812 247.945312 523.230469 254.964844 C 509.71875 259.101562 496.386719 262.085938 483.34375 263.820312 Z M 518.539062 235.746094 C 518.460938 235.558594 518.484375 235.226562 518.960938 234.503906 C 520.390625 232.304688 521.25 231.832031 521.53125 231.167969 C 521.820312 230.488281 522.871094 229.253906 523.152344 228.207031 C 523.441406 227.15625 523.535156 227.539062 523.441406 226.875 C 523.34375 226.199219 522.769531 222.007812 523.816406 220.007812 C 524.863281 218.011719 526.296875 217.34375 527.539062 215.433594 C 528.773438 213.519531 528.773438 213.90625 529.730469 212.863281 C 530.679688 211.816406 531.15625 210.570312 531.351562 209.425781 C 531.535156 208.285156 531.351562 207.242188 530.589844 206.476562 C 529.828125 205.707031 529.347656 206.476562 528.300781 205.527344 C 527.257812 204.570312 526.769531 204.480469 524.292969 203.992188 C 521.820312 203.519531 522.675781 204.570312 520.007812 204.375 C 517.34375 204.179688 518.769531 204.757812 516.957031 204.570312 C 515.300781 204.398438 516.652344 204.527344 516.390625 203.757812 C 522.792969 202.355469 528.867188 200.730469 534.546875 198.914062 C 533.773438 209.585938 532.117188 220.867188 529.375 232.78125 C 525.894531 233.847656 522.28125 234.839844 518.539062 235.746094 Z M 564.027344 185.273438 C 566.882812 183.335938 569.4375 181.296875 571.660156 179.179688 C 570.125 188.707031 567.476562 197.871094 563.820312 206.515625 C 564.222656 199.113281 564.265625 192.046875 564.027344 185.273438 Z M 563.949219 183.496094 C 563.804688 180.109375 563.59375 176.796875 563.300781 173.574219 C 565.199219 174.484375 564.242188 175.453125 566.519531 174.070312 C 569.183594 172.449219 570.707031 170.453125 572.050781 168.730469 C 572.390625 168.289062 572.683594 167.863281 572.945312 167.464844 C 572.761719 170.5625 572.445312 173.625 572.023438 176.660156 C 569.746094 179.042969 567.042969 181.320312 563.949219 183.496094 Z M 378.957031 67.097656 C 379.445312 68.355469 380.136719 69.582031 380.984375 70.78125 C 371.417969 77.636719 362.132812 85.808594 354.027344 95.476562 C 353.933594 95.277344 353.851562 95.082031 353.769531 94.882812 C 360.667969 84.351562 369.179688 74.972656 378.957031 67.097656 Z M 337.769531 131.542969 C 340.585938 135.582031 344.640625 139.390625 349.773438 142.90625 C 345.71875 154.324219 343.195312 166.773438 342.957031 180.210938 C 339.554688 177.371094 336.8125 174.382812 334.824219 171.265625 C 334.480469 167.605469 334.285156 163.902344 334.285156 160.160156 C 334.285156 150.292969 335.507812 140.714844 337.769531 131.542969 Z M 350.628906 220.351562 C 357.992188 225.324219 367.367188 229.667969 378.238281 233.21875 C 381.605469 241.195312 386.046875 248.855469 391.5625 256.160156 C 386.238281 254.605469 381.707031 253.070312 378.113281 251.761719 C 377.84375 251.671875 377.589844 251.773438 377.390625 251.9375 C 366.738281 243.066406 357.671875 232.371094 350.628906 220.351562 Z M 435.105469 278.140625 C 430.988281 274.054688 427.417969 269.613281 424.386719 264.863281 C 434.035156 266.257812 444.539062 267.171875 455.625 267.195312 C 456.207031 271.6875 456.867188 275.808594 457.605469 279.511719 C 456.320312 279.546875 455.035156 279.605469 453.738281 279.605469 C 447.402344 279.605469 441.179688 279.101562 435.105469 278.140625 Z M 528.28125 253.390625 C 527.183594 253.75 526.089844 254.070312 524.992188 254.417969 C 527.226562 247.40625 529.125 240.585938 530.671875 233.960938 C 539.671875 231.148438 547.761719 227.816406 554.613281 224.007812 C 547.5 235.199219 538.597656 245.132812 528.28125 253.390625 Z M 528.28125 253.390625 " fill-opacity="1" fill-rule="nonzero"></path></g><path fill="#000000" d="M 462.25 170.453125 C 462.152344 170.828125 460.726562 170.734375 460.347656 171.402344 C 459.964844 172.066406 459.300781 172.644531 460.347656 172.734375 C 461.394531 172.832031 461.96875 172.644531 463.109375 172.734375 C 464.253906 172.832031 463.109375 172.976562 464.632812 172.765625 C 466.15625 172.546875 465.492188 173.023438 467.015625 172.363281 C 468.539062 171.691406 469.496094 171.597656 470.351562 171.597656 C 471.207031 171.597656 471.207031 170.785156 471.59375 171.039062 C 471.972656 171.308594 472.253906 172.015625 472.253906 171.039062 C 472.253906 170.070312 472.164062 169.707031 470.546875 169.699219 C 468.921875 169.6875 468.449219 169.707031 467.875 169.699219 C 467.300781 169.6875 466.023438 169.699219 466.023438 169.699219 L 464.636719 169.210938 C 462.730469 169.300781 462.253906 169.699219 462.253906 169.699219 C 462.253906 169.699219 463.113281 170.355469 463.441406 170.453125 C 463.777344 170.542969 462.34375 170.066406 462.25 170.453125 Z M 462.25 170.453125 " fill-opacity="1" fill-rule="nonzero"></path><path fill="#000000" d="M 475.671875 172.484375 C 476.546875 172.449219 476.070312 172.644531 476.546875 172.449219 C 477.023438 172.253906 476.449219 172.730469 477.023438 172.257812 C 477.597656 171.785156 477.597656 171.78125 477.597656 171.78125 C 477.597656 171.78125 477.789062 171.402344 478.074219 171.402344 C 478.359375 171.402344 478.359375 170.679688 478.074219 171.039062 C 477.789062 171.402344 476.363281 171.039062 476.363281 171.039062 C 475.695312 171.113281 475.121094 171.207031 475.03125 171.402344 C 474.929688 171.59375 475.03125 171.59375 475.03125 171.976562 C 475.027344 172.359375 474.789062 172.519531 475.671875 172.484375 Z M 475.671875 172.484375 " fill-opacity="1" fill-rule="nonzero"></path><path fill="#000000" d="M 506.214844 70.503906 C 505.140625 70.371094 505.078125 70.183594 504.566406 69.738281 C 504.050781 69.292969 503.464844 69.164062 503.253906 69.164062 C 503.042969 69.164062 502.722656 69.164062 502.722656 69.164062 C 502.277344 69.796875 502.085938 70.25 502.023438 70.4375 C 501.957031 70.625 501.199219 71.132812 501.199219 71.132812 C 501.199219 71.132812 501.132812 71.074219 500.6875 71.132812 C 500.25 71.199219 499.296875 69.992188 499.039062 71.132812 C 498.777344 72.277344 498.40625 72.152344 499.039062 72.917969 C 499.671875 73.679688 501.203125 74.507812 501.898438 74.949219 C 502.597656 75.394531 502.402344 75.84375 504 76.027344 C 505.589844 76.21875 504.949219 76.984375 506.214844 75.648438 C 507.488281 74.3125 507.296875 75.332031 507.558594 73.679688 C 507.8125 72.027344 507.992188 72.226562 507.558594 71.515625 C 507.113281 70.820312 507.296875 70.628906 506.214844 70.503906 Z M 506.214844 70.503906 " fill-opacity="1" fill-rule="nonzero"></path><path fill="#000000" d="M 438.097656 67.90625 C 438.066406 67.953125 438.070312 67.96875 438.097656 67.90625 Z M 438.097656 67.90625 " fill-opacity="1" fill-rule="nonzero"></path><path fill="#000000" d="M 438.140625 67.609375 C 438.140625 67.769531 438.117188 67.855469 438.097656 67.90625 C 438.140625 67.832031 438.277344 67.695312 438.707031 67.609375 C 439.660156 67.417969 439.1875 67.800781 439.660156 67.417969 C 440.136719 67.039062 439.378906 67.417969 440.136719 67.039062 C 440.902344 66.660156 440.707031 67.417969 440.902344 66.660156 C 441.09375 65.894531 440.617188 66.558594 440.902344 65.5625 C 441.1875 64.5625 440.808594 65.230469 441.1875 64.5625 C 441.566406 63.894531 441.285156 64.464844 441.566406 63.894531 C 441.851562 63.324219 440.824219 63.414062 440.824219 63.414062 C 440.824219 63.414062 440.617188 63.507812 440.132812 63.988281 C 439.65625 64.464844 438.707031 64.5625 438.324219 64.847656 C 437.945312 65.132812 438.324219 64.179688 437.945312 65.132812 C 437.5625 66.085938 437.753906 66.347656 437.945312 66.976562 C 438.140625 67.609375 438.140625 66.941406 438.140625 67.609375 Z M 438.140625 67.609375 " fill-opacity="1" fill-rule="nonzero"></path><path fill="#000000" d="M 449.003906 82.289062 C 448.527344 81.714844 448.710938 81.238281 447.855469 81.238281 C 447.003906 81.238281 447.003906 81.238281 447.003906 81.238281 C 447.003906 81.238281 446.050781 81.8125 445.957031 82.382812 C 445.863281 82.953125 445.25 82.667969 445.363281 83.238281 C 445.480469 83.8125 444.585938 83.335938 445.363281 84.289062 C 446.144531 85.238281 446.621094 85.050781 447.003906 85.429688 C 447.382812 85.808594 446.625 86.382812 447.003906 86.574219 C 447.382812 86.761719 446.429688 87.238281 447.855469 86.574219 C 449.292969 85.90625 448.242188 86.855469 449.292969 85.90625 C 450.34375 84.953125 450.246094 85.808594 450.34375 84.953125 C 450.4375 84.09375 451.011719 84.285156 450.34375 83.617188 C 449.667969 82.953125 449.480469 82.859375 449.003906 82.289062 Z M 449.003906 82.289062 " fill-opacity="1" fill-rule="nonzero"></path><g transform="matrix(1, 0, 0, 1, 584, 0)"><g clip-path="url(#257bb73e7c)"><g fill="#000000" fill-opacity="1"><g transform="translate(0.768608, 279.28475)"><g><path d="M 46.5 -182.4375 L 46.5 -1.296875 C 46.5 -0.972656 46.445312 -0.675781 46.34375 -0.40625 C 46.238281 -0.132812 46.019531 0 45.6875 0 L 8.9375 0 C 8.726562 0 8.539062 -0.132812 8.375 -0.40625 C 8.207031 -0.675781 8.125 -0.972656 8.125 -1.296875 L 8.125 -240.984375 C 8.125 -241.304688 8.207031 -241.578125 8.375 -241.796875 C 8.539062 -242.015625 8.726562 -242.125 8.9375 -242.125 L 74.140625 -242.125 C 74.359375 -242.125 74.578125 -242.015625 74.796875 -241.796875 C 75.015625 -241.578125 75.175781 -241.304688 75.28125 -240.984375 L 96.265625 -82.765625 L 117.078125 -240.984375 C 117.296875 -241.742188 117.617188 -242.125 118.046875 -242.125 L 183.25 -242.125 C 183.46875 -242.125 183.65625 -242.015625 183.8125 -241.796875 C 183.976562 -241.578125 184.0625 -241.304688 184.0625 -240.984375 L 184.0625 -1.296875 C 184.0625 -0.972656 183.976562 -0.675781 183.8125 -0.40625 C 183.65625 -0.132812 183.46875 0 183.25 0 L 146.5 0 C 146.289062 0 146.101562 -0.132812 145.9375 -0.40625 C 145.769531 -0.675781 145.6875 -0.972656 145.6875 -1.296875 L 145.6875 -182.28125 L 115.609375 -1.296875 C 115.503906 -0.535156 115.179688 -0.15625 114.640625 -0.15625 L 77.71875 -0.15625 C 77.507812 -0.15625 77.296875 -0.265625 77.078125 -0.484375 C 76.859375 -0.703125 76.75 -0.972656 76.75 -1.296875 Z M 46.5 -182.4375 "></path></g></g></g><g fill="#000000" fill-opacity="1"><g transform="translate(197.035866, 279.28475)"><g><path d="M 60.15625 0.15625 C 46.613281 0.15625 34.773438 -4.742188 24.640625 -14.546875 C 14.503906 -24.359375 9 -39.019531 8.125 -58.53125 L 8.125 -242.125 L 46.5 -242.125 L 46.5 -59.34375 C 46.5 -53.488281 47.878906 -49.097656 50.640625 -46.171875 C 53.410156 -43.253906 56.421875 -41.796875 59.671875 -41.796875 C 62.921875 -41.796875 65.898438 -43.253906 68.609375 -46.171875 C 71.328125 -49.097656 72.6875 -53.488281 72.6875 -59.34375 L 72.6875 -242.125 L 111.21875 -242.125 L 111.21875 -58.53125 C 110.351562 -38.800781 104.878906 -24.085938 94.796875 -14.390625 C 84.710938 -4.691406 73.164062 0.15625 60.15625 0.15625 Z M 60.15625 0.15625 "></path></g></g><g transform="translate(316.389778, 279.28475)"><g><path d="M 79.515625 -1.140625 L 46.5 -134.796875 L 46.5 -1.296875 C 46.5 -0.972656 46.414062 -0.675781 46.25 -0.40625 C 46.09375 -0.132812 45.90625 0 45.6875 0 L 8.9375 0 C 8.726562 0 8.539062 -0.132812 8.375 -0.40625 C 8.207031 -0.675781 8.125 -0.972656 8.125 -1.296875 L 8.125 -240.984375 C 8.125 -241.304688 8.207031 -241.578125 8.375 -241.796875 C 8.539062 -242.015625 8.726562 -242.125 8.9375 -242.125 L 49.265625 -242.125 C 49.484375 -242.125 49.703125 -242.015625 49.921875 -241.796875 C 50.140625 -241.578125 50.300781 -241.304688 50.40625 -240.984375 L 82.921875 -109.265625 L 82.921875 -240.984375 C 82.921875 -241.304688 83.003906 -241.578125 83.171875 -241.796875 C 83.335938 -242.015625 83.523438 -242.125 83.734375 -242.125 L 120.65625 -242.125 C 120.875 -242.125 121.0625 -242.015625 121.21875 -241.796875 C 121.382812 -241.578125 121.46875 -241.304688 121.46875 -240.984375 L 121.46875 -1.296875 C 121.46875 -0.972656 121.382812 -0.675781 121.21875 -0.40625 C 121.0625 -0.132812 120.875 0 120.65625 0 L 80.65625 0 C 80.4375 0 80.21875 -0.109375 80 -0.328125 C 79.78125 -0.546875 79.617188 -0.816406 79.515625 -1.140625 Z M 79.515625 -1.140625 "></path></g></g></g><g fill="#000000" fill-opacity="1"><g transform="translate(450.05317, 279.28475)"><g><path d="M 68.125 -38.375 C 71.488281 -38.375 74.363281 -40.269531 76.75 -44.0625 C 79.132812 -47.851562 80.328125 -52.675781 80.328125 -58.53125 L 80.328125 -183.578125 C 80.328125 -189.546875 79.132812 -194.398438 76.75 -198.140625 C 74.363281 -201.878906 71.546875 -203.75 68.296875 -203.75 L 46.671875 -203.75 L 46.671875 -38.375 Z M 73.5 0 C 30.25 0 8.539062 -0.132812 8.375 -0.40625 C 8.207031 -0.675781 8.125 -40.921875 8.125 -121.140625 C 8.125 -201.796875 8.394531 -242.125 8.9375 -242.125 L 73.5 -242.125 C 85.3125 -240.601562 95.523438 -235.019531 104.140625 -225.375 C 112.765625 -215.726562 117.398438 -202.066406 118.046875 -184.390625 L 118.046875 -57.71875 C 117.398438 -40.050781 112.765625 -26.394531 104.140625 -16.75 C 95.523438 -7.101562 85.3125 -1.519531 73.5 0 Z M 73.5 0 "></path></g></g></g><g fill="#000000" fill-opacity="1"><g transform="translate(576.236574, 279.28475)"><g><path d="M 8.9375 -242.125 L 45.6875 -242.125 C 45.90625 -242.125 46.09375 -242.015625 46.25 -241.796875 C 46.414062 -241.578125 46.5 -241.304688 46.5 -240.984375 L 46.5 -1.296875 C 46.5 -0.972656 46.414062 -0.675781 46.25 -0.40625 C 46.09375 -0.132812 45.90625 0 45.6875 0 L 8.9375 0 C 8.726562 0 8.539062 -0.132812 8.375 -0.40625 C 8.207031 -0.675781 8.125 -0.972656 8.125 -1.296875 L 8.125 -240.984375 C 8.125 -241.304688 8.207031 -241.578125 8.375 -241.796875 C 8.539062 -242.015625 8.726562 -242.125 8.9375 -242.125 Z M 8.9375 -242.125 "></path></g></g></g></g></g><g transform="matrix(1, 0, 0, 1, 37, 0)"><g clip-path="url(#a246212ba6)"><g fill="#000000" fill-opacity="1"><g transform="translate(1.257151, 279.28475)"><g><path d="M 8.9375 -242.125 L 45.6875 -242.125 C 45.90625 -242.125 46.09375 -242.015625 46.25 -241.796875 C 46.414062 -241.578125 46.5 -241.304688 46.5 -240.984375 L 46.5 -1.296875 C 46.5 -0.972656 46.414062 -0.675781 46.25 -0.40625 C 46.09375 -0.132812 45.90625 0 45.6875 0 L 8.9375 0 C 8.726562 0 8.539062 -0.132812 8.375 -0.40625 C 8.207031 -0.675781 8.125 -0.972656 8.125 -1.296875 L 8.125 -240.984375 C 8.125 -241.304688 8.207031 -241.578125 8.375 -241.796875 C 8.539062 -242.015625 8.726562 -242.125 8.9375 -242.125 Z M 8.9375 -242.125 "></path></g></g><g transform="translate(55.893274, 279.28475)"><g><path d="M 79.515625 -1.140625 L 46.5 -134.796875 L 46.5 -1.296875 C 46.5 -0.972656 46.414062 -0.675781 46.25 -0.40625 C 46.09375 -0.132812 45.90625 0 45.6875 0 L 8.9375 0 C 8.726562 0 8.539062 -0.132812 8.375 -0.40625 C 8.207031 -0.675781 8.125 -0.972656 8.125 -1.296875 L 8.125 -240.984375 C 8.125 -241.304688 8.207031 -241.578125 8.375 -241.796875 C 8.539062 -242.015625 8.726562 -242.125 8.9375 -242.125 L 49.265625 -242.125 C 49.484375 -242.125 49.703125 -242.015625 49.921875 -241.796875 C 50.140625 -241.578125 50.300781 -241.304688 50.40625 -240.984375 L 82.921875 -109.265625 L 82.921875 -240.984375 C 82.921875 -241.304688 83.003906 -241.578125 83.171875 -241.796875 C 83.335938 -242.015625 83.523438 -242.125 83.734375 -242.125 L 120.65625 -242.125 C 120.875 -242.125 121.0625 -242.015625 121.21875 -241.796875 C 121.382812 -241.578125 121.46875 -241.304688 121.46875 -240.984375 L 121.46875 -1.296875 C 121.46875 -0.972656 121.382812 -0.675781 121.21875 -0.40625 C 121.0625 -0.132812 120.875 0 120.65625 0 L 80.65625 0 C 80.4375 0 80.21875 -0.109375 80 -0.328125 C 79.78125 -0.546875 79.617188 -0.816406 79.515625 -1.140625 Z M 79.515625 -1.140625 "></path></g></g></g><g fill="#000000" fill-opacity="1"><g transform="translate(189.556653, 279.28475)"><g><path d="M 8.125 -240.984375 C 8.125 -241.304688 8.175781 -241.578125 8.28125 -241.796875 C 8.394531 -242.015625 8.507812 -242.125 8.625 -242.125 L 90.734375 -242.125 C 90.835938 -242.125 90.914062 -242.015625 90.96875 -241.796875 C 91.03125 -241.578125 91.0625 -241.359375 91.0625 -241.140625 L 91.0625 -205.203125 C 91.0625 -204.984375 91.03125 -204.765625 90.96875 -204.546875 C 90.914062 -204.335938 90.835938 -204.234375 90.734375 -204.234375 L 46.671875 -204.234375 L 46.671875 -125.375 L 90.734375 -125.375 C 90.835938 -125.375 90.914062 -125.265625 90.96875 -125.046875 C 91.03125 -124.828125 91.0625 -124.609375 91.0625 -124.390625 L 91.0625 -88.453125 C 91.0625 -88.128906 91.03125 -87.882812 90.96875 -87.71875 C 90.914062 -87.5625 90.835938 -87.484375 90.734375 -87.484375 L 46.671875 -87.484375 L 46.671875 -1.296875 C 46.671875 -0.972656 46.585938 -0.675781 46.421875 -0.40625 C 46.265625 -0.132812 46.078125 0 45.859375 0 L 8.9375 0 C 8.726562 0 8.539062 -0.132812 8.375 -0.40625 C 8.207031 -0.675781 8.125 -0.972656 8.125 -1.296875 Z M 8.125 -240.984375 "></path></g></g></g></g></g><g clip-path="url(#12bec84590)"><g clip-path="url(#15454a0f67)"><path stroke-linecap="butt" transform="matrix(0.812956, 0, 0, 0.812956, 329.275929, 35.306459)" fill="none" stroke-linejoin="miter" d="M 152.670934 -0.00217863 C 68.352833 -0.00217863 0.00173976 69.257059 0.00173976 154.685115 C 0.00173976 240.117976 68.352833 309.377214 152.670934 309.377214 C 236.989035 309.377214 305.340129 240.117976 305.340129 154.685115 C 305.340129 69.257059 236.989035 -0.00217863 152.670934 -0.00217863 Z M 152.670934 -0.00217863 " stroke="#080908" stroke-width="42.373241" stroke-opacity="1" stroke-miterlimit="4"></path></g></g></g></g></g></svg>